<svg width="126" height="24" viewBox="0 0 126 24" fill="none" xmlns="http://www.w3.org/2000/svg">
<rect width="126" height="24" rx="4" fill="#17B003"/>
<g clip-path="url(#clip0_304_99180)">
<path d="M30.5001 8.66668L29.5601 7.72668L25.3334 11.9534L26.2734 12.8934L30.5001 8.66668ZM33.3268 7.72668L26.2734 14.78L23.4868 12L22.5468 12.94L26.2734 16.6667L34.2734 8.66668L33.3268 7.72668ZM18.7734 12.94L22.5001 16.6667L23.4401 15.7267L19.7201 12L18.7734 12.94Z" fill="white"/>
</g>
<path d="M45.416 14.512H41.342L40.642 16.5H38.976L42.462 6.756H44.31L47.796 16.5H46.116L45.416 14.512ZM44.968 13.21L43.386 8.688L41.79 13.21H44.968ZM48.7797 12.636C48.7797 11.8427 48.9384 11.1473 49.2557 10.55C49.5824 9.94333 50.0304 9.47667 50.5997 9.15C51.1691 8.82333 51.8224 8.66 52.5597 8.66C53.4931 8.66 54.2631 8.884 54.8697 9.332C55.4857 9.77067 55.9011 10.4007 56.1157 11.222H54.3937C54.2537 10.8393 54.0297 10.5407 53.7217 10.326C53.4137 10.1113 53.0264 10.004 52.5597 10.004C51.9064 10.004 51.3837 10.2373 50.9917 10.704C50.6091 11.1613 50.4177 11.8053 50.4177 12.636C50.4177 13.4667 50.6091 14.1153 50.9917 14.582C51.3837 15.0487 51.9064 15.282 52.5597 15.282C53.4837 15.282 54.0951 14.876 54.3937 14.064H56.1157C55.8917 14.848 55.4717 15.4733 54.8557 15.94C54.2397 16.3973 53.4744 16.626 52.5597 16.626C51.8224 16.626 51.1691 16.4627 50.5997 16.136C50.0304 15.8 49.5824 15.3333 49.2557 14.736C48.9384 14.1293 48.7797 13.4293 48.7797 12.636ZM57.1743 12.636C57.1743 11.8427 57.3329 11.1473 57.6503 10.55C57.9769 9.94333 58.4249 9.47667 58.9943 9.15C59.5636 8.82333 60.2169 8.66 60.9543 8.66C61.8876 8.66 62.6576 8.884 63.2643 9.332C63.8803 9.77067 64.2956 10.4007 64.5103 11.222H62.7883C62.6483 10.8393 62.4243 10.5407 62.1163 10.326C61.8083 10.1113 61.4209 10.004 60.9543 10.004C60.3009 10.004 59.7783 10.2373 59.3863 10.704C59.0036 11.1613 58.8123 11.8053 58.8123 12.636C58.8123 13.4667 59.0036 14.1153 59.3863 14.582C59.7783 15.0487 60.3009 15.282 60.9543 15.282C61.8783 15.282 62.4896 14.876 62.7883 14.064H64.5103C64.2863 14.848 63.8663 15.4733 63.2503 15.94C62.6343 16.3973 61.8689 16.626 60.9543 16.626C60.2169 16.626 59.5636 16.4627 58.9943 16.136C58.4249 15.8 57.9769 15.3333 57.6503 14.736C57.3329 14.1293 57.1743 13.4293 57.1743 12.636ZM73.1708 12.454C73.1708 12.7433 73.1521 13.0047 73.1148 13.238H67.2208C67.2674 13.854 67.4961 14.3487 67.9068 14.722C68.3174 15.0953 68.8214 15.282 69.4188 15.282C70.2774 15.282 70.8841 14.9227 71.2388 14.204H72.9608C72.7274 14.9133 72.3028 15.4967 71.6868 15.954C71.0801 16.402 70.3241 16.626 69.4188 16.626C68.6814 16.626 68.0188 16.4627 67.4308 16.136C66.8521 15.8 66.3948 15.3333 66.0588 14.736C65.7321 14.1293 65.5688 13.4293 65.5688 12.636C65.5688 11.8427 65.7274 11.1473 66.0448 10.55C66.3714 9.94333 66.8241 9.47667 67.4028 9.15C67.9908 8.82333 68.6628 8.66 69.4188 8.66C70.1468 8.66 70.7954 8.81867 71.3648 9.136C71.9341 9.45333 72.3774 9.90133 72.6948 10.48C73.0121 11.0493 73.1708 11.7073 73.1708 12.454ZM71.5048 11.95C71.4954 11.362 71.2854 10.8907 70.8748 10.536C70.4641 10.1813 69.9554 10.004 69.3488 10.004C68.7981 10.004 68.3268 10.1813 67.9348 10.536C67.5428 10.8813 67.3094 11.3527 67.2348 11.95H71.5048ZM76.3374 9.92C76.6081 9.56533 76.9767 9.26667 77.4434 9.024C77.9101 8.78133 78.4374 8.66 79.0254 8.66C79.6974 8.66 80.3087 8.828 80.8594 9.164C81.4194 9.49067 81.8581 9.95267 82.1754 10.55C82.4927 11.1473 82.6514 11.8333 82.6514 12.608C82.6514 13.3827 82.4927 14.078 82.1754 14.694C81.8581 15.3007 81.4194 15.7767 80.8594 16.122C80.3087 16.458 79.6974 16.626 79.0254 16.626C78.4374 16.626 77.9147 16.5093 77.4574 16.276C77.0001 16.0333 76.6267 15.7347 76.3374 15.38V20.168H74.7414V8.786H76.3374V9.92ZM81.0274 12.608C81.0274 12.076 80.9154 11.6187 80.6914 11.236C80.4767 10.844 80.1874 10.55 79.8234 10.354C79.4687 10.1487 79.0861 10.046 78.6754 10.046C78.2741 10.046 77.8914 10.1487 77.5274 10.354C77.1727 10.5593 76.8834 10.858 76.6594 11.25C76.4447 11.642 76.3374 12.104 76.3374 12.636C76.3374 13.168 76.4447 13.6347 76.6594 14.036C76.8834 14.428 77.1727 14.7267 77.5274 14.932C77.8914 15.1373 78.2741 15.24 78.6754 15.24C79.0861 15.24 79.4687 15.1373 79.8234 14.932C80.1874 14.7173 80.4767 14.4093 80.6914 14.008C80.9154 13.6067 81.0274 13.14 81.0274 12.608ZM86.0917 10.088V14.358C86.0917 14.6473 86.157 14.8573 86.2877 14.988C86.4277 15.1093 86.661 15.17 86.9877 15.17H87.9677V16.5H86.7077C85.989 16.5 85.4384 16.332 85.0557 15.996C84.673 15.66 84.4817 15.114 84.4817 14.358V10.088H83.5717V8.786H84.4817V6.868H86.0917V8.786H87.9677V10.088H86.0917ZM96.5087 12.454C96.5087 12.7433 96.49 13.0047 96.4527 13.238H90.5587C90.6053 13.854 90.834 14.3487 91.2447 14.722C91.6553 15.0953 92.1593 15.282 92.7567 15.282C93.6153 15.282 94.222 14.9227 94.5767 14.204H96.2987C96.0653 14.9133 95.6407 15.4967 95.0247 15.954C94.418 16.402 93.662 16.626 92.7567 16.626C92.0193 16.626 91.3567 16.4627 90.7687 16.136C90.19 15.8 89.7327 15.3333 89.3967 14.736C89.07 14.1293 88.9067 13.4293 88.9067 12.636C88.9067 11.8427 89.0653 11.1473 89.3827 10.55C89.7093 9.94333 90.162 9.47667 90.7407 9.15C91.3287 8.82333 92.0007 8.66 92.7567 8.66C93.4847 8.66 94.1333 8.81867 94.7027 9.136C95.272 9.45333 95.7153 9.90133 96.0327 10.48C96.35 11.0493 96.5087 11.7073 96.5087 12.454ZM94.8427 11.95C94.8333 11.362 94.6233 10.8907 94.2127 10.536C93.802 10.1813 93.2933 10.004 92.6867 10.004C92.136 10.004 91.6647 10.1813 91.2727 10.536C90.8807 10.8813 90.6473 11.3527 90.5727 11.95H94.8427ZM97.5473 12.608C97.5473 11.8333 97.706 11.1473 98.0233 10.55C98.35 9.95267 98.7886 9.49067 99.3393 9.164C99.8993 8.828 100.52 8.66 101.201 8.66C101.705 8.66 102.2 8.772 102.685 8.996C103.18 9.21067 103.572 9.5 103.861 9.864V6.14H105.471V16.5H103.861V15.338C103.6 15.7113 103.236 16.0193 102.769 16.262C102.312 16.5047 101.785 16.626 101.187 16.626C100.515 16.626 99.8993 16.458 99.3393 16.122C98.7886 15.7767 98.35 15.3007 98.0233 14.694C97.706 14.078 97.5473 13.3827 97.5473 12.608ZM103.861 12.636C103.861 12.104 103.749 11.642 103.525 11.25C103.311 10.858 103.026 10.5593 102.671 10.354C102.317 10.1487 101.934 10.046 101.523 10.046C101.113 10.046 100.73 10.1487 100.375 10.354C100.021 10.55 99.7313 10.844 99.5073 11.236C99.2926 11.6187 99.1853 12.076 99.1853 12.608C99.1853 13.14 99.2926 13.6067 99.5073 14.008C99.7313 14.4093 100.021 14.7173 100.375 14.932C100.739 15.1373 101.122 15.24 101.523 15.24C101.934 15.24 102.317 15.1373 102.671 14.932C103.026 14.7267 103.311 14.428 103.525 14.036C103.749 13.6347 103.861 13.168 103.861 12.636Z" fill="white"/>
<defs>
<clipPath id="clip0_304_99180">
<rect width="16" height="16" fill="white" transform="translate(18.5 4)"/>
</clipPath>
</defs>
</svg>
