<svg width="14" height="14" viewBox="0 0 14 14" fill="none" xmlns="http://www.w3.org/2000/svg">
<path d="M11.76 7.62667C11.7867 7.42667 11.8 7.22001 11.8 7.00001C11.8 6.78667 11.7867 6.57334 11.7533 6.37334L13.1067 5.32001C13.2267 5.22667 13.26 5.04667 13.1867 4.91334L11.9067 2.70001C11.8267 2.55334 11.66 2.50667 11.5133 2.55334L9.91999 3.19334C9.58666 2.94001 9.23333 2.72667 8.83999 2.56667L8.59999 0.873339C8.57332 0.713339 8.43999 0.600006 8.27999 0.600006H5.71999C5.55999 0.600006 5.43332 0.713339 5.40666 0.873339L5.16666 2.56667C4.77332 2.72667 4.41332 2.94667 4.08666 3.19334L2.49332 2.55334C2.34666 2.50001 2.17999 2.55334 2.09999 2.70001L0.826658 4.91334C0.746658 5.05334 0.773325 5.22667 0.906658 5.32001L2.25999 6.37334C2.22666 6.57334 2.19999 6.79334 2.19999 7.00001C2.19999 7.20667 2.21332 7.42667 2.24666 7.62667L0.893325 8.68001C0.773325 8.77334 0.739992 8.95334 0.813325 9.08667L2.09332 11.3C2.17332 11.4467 2.33999 11.4933 2.48666 11.4467L4.07999 10.8067C4.41332 11.06 4.76666 11.2733 5.15999 11.4333L5.39999 13.1267C5.43332 13.2867 5.55999 13.4 5.71999 13.4H8.27999C8.43999 13.4 8.57332 13.2867 8.59332 13.1267L8.83332 11.4333C9.22666 11.2733 9.58666 11.06 9.91333 10.8067L11.5067 11.4467C11.6533 11.5 11.82 11.4467 11.9 11.3L13.18 9.08667C13.26 8.94001 13.2267 8.77334 13.1 8.68001L11.76 7.62667ZM6.99999 9.40001C5.67999 9.40001 4.59999 8.32001 4.59999 7.00001C4.59999 5.68001 5.67999 4.60001 6.99999 4.60001C8.31999 4.60001 9.39999 5.68001 9.39999 7.00001C9.39999 8.32001 8.31999 9.40001 6.99999 9.40001Z" fill="#545454"/>
</svg>
