<svg width="27" height="28" viewBox="0 0 27 28" fill="none" xmlns="http://www.w3.org/2000/svg">
<path d="M13.4993 0.666656C6.13935 0.666656 0.166016 6.63999 0.166016 14C0.166016 21.36 6.13935 27.3333 13.4993 27.3333C20.8593 27.3333 26.8327 21.36 26.8327 14C26.8327 6.63999 20.8593 0.666656 13.4993 0.666656ZM13.4993 24.6667C7.61935 24.6667 2.83268 19.88 2.83268 14C2.83268 8.11999 7.61935 3.33332 13.4993 3.33332C19.3793 3.33332 24.166 8.11999 24.166 14C24.166 19.88 19.3793 24.6667 13.4993 24.6667ZM19.6193 8.10666L10.8327 16.8933L7.37935 13.4533L5.49935 15.3333L10.8327 20.6667L21.4993 9.99999L19.6193 8.10666Z" fill="#20C997"/>
</svg>
