<svg width="18" height="14" viewBox="0 0 18 14" fill="none" xmlns="http://www.w3.org/2000/svg">
<path d="M0.666626 13.6666V11.3333C0.666626 10.875 0.784682 10.4444 1.02079 10.0416C1.2569 9.63887 1.58329 9.33331 1.99996 9.12498C2.70829 8.76387 3.5069 8.45831 4.39579 8.20831C5.28468 7.95831 6.26385 7.83331 7.33329 7.83331C7.74996 7.83331 8.15621 7.85415 8.55204 7.89581C8.94788 7.93748 9.33329 7.99998 9.70829 8.08331L8.24996 9.54165C8.09718 9.51387 7.94788 9.49998 7.80204 9.49998H7.33329C6.34718 9.49998 5.46176 9.61803 4.67704 9.85415C3.89232 10.0903 3.24996 10.3472 2.74996 10.625C2.62496 10.6944 2.52426 10.7916 2.44788 10.9166C2.37149 11.0416 2.33329 11.1805 2.33329 11.3333V12H7.54163L9.20829 13.6666H0.666626ZM11.9583 14L9.08329 11.125L10.25 9.95831L11.9583 11.6666L16.1666 7.45831L17.3333 8.62498L11.9583 14ZM7.33329 6.99998C6.41663 6.99998 5.6319 6.67359 4.97913 6.02081C4.32635 5.36803 3.99996 4.58331 3.99996 3.66665C3.99996 2.74998 4.32635 1.96526 4.97913 1.31248C5.6319 0.659702 6.41663 0.333313 7.33329 0.333313C8.24996 0.333313 9.03468 0.659702 9.68746 1.31248C10.3402 1.96526 10.6666 2.74998 10.6666 3.66665C10.6666 4.58331 10.3402 5.36803 9.68746 6.02081C9.03468 6.67359 8.24996 6.99998 7.33329 6.99998ZM7.33329 5.33331C7.79163 5.33331 8.18399 5.17012 8.51038 4.84373C8.83676 4.51734 8.99996 4.12498 8.99996 3.66665C8.99996 3.20831 8.83676 2.81595 8.51038 2.48956C8.18399 2.16317 7.79163 1.99998 7.33329 1.99998C6.87496 1.99998 6.4826 2.16317 6.15621 2.48956C5.82982 2.81595 5.66663 3.20831 5.66663 3.66665C5.66663 4.12498 5.82982 4.51734 6.15621 4.84373C6.4826 5.17012 6.87496 5.33331 7.33329 5.33331Z" fill="white"/>
</svg>
