<svg width="150" height="128" viewBox="0 0 150 128" fill="none" xmlns="http://www.w3.org/2000/svg">
<path d="M150 116.789C149.342 119.638 148.283 122.268 146.128 124.314C143.497 126.762 140.356 127.821 136.812 127.821C95.7501 127.821 54.6883 127.821 13.6264 127.821C5.62592 127.785 0.365326 122.414 0.365326 114.451C0.365326 89.207 0.365326 64 0.365326 38.7564C0.365326 30.8655 5.62592 25.5684 13.5533 25.5319C26.9605 25.4954 40.3312 25.5319 53.7384 25.5319C54.8344 25.5319 55.4554 25.3858 55.7842 24.1437C56.2591 22.3171 57.6473 21.075 59.3278 20.2713C72.114 14.0609 84.8636 7.85045 97.6498 1.67656C100.938 0.105686 104.372 0.142217 107.66 1.71309C120.373 7.85045 133.049 14.0243 145.726 20.1617C148.027 21.2942 149.379 23.1208 149.963 25.5684C150 55.9995 150 86.394 150 116.789ZM145.032 75.3249C144.922 75.2883 144.849 75.2518 144.739 75.2518C144.484 75.7633 144.228 76.2747 144.009 76.7861C140.794 83.9099 136.556 90.3395 131.259 96.075C123.989 103.893 115.185 109.921 106.856 116.46C104.189 118.579 100.536 118.286 97.7594 116.094C90.9644 110.724 83.9138 105.61 77.5938 99.7282C63.5655 86.7228 56.2226 70.4296 55.3458 51.2869C55.0536 44.9303 55.2728 38.5372 55.2362 32.1442C55.2362 31.6327 55.2362 31.1213 55.2362 30.6098C54.7613 30.5733 54.5056 30.5368 54.2864 30.5368C40.5504 30.5368 26.8144 30.5368 13.0784 30.5368C12.4209 30.5368 11.7267 30.6098 11.0692 30.756C7.37945 31.7058 5.33366 34.5918 5.33366 38.866C5.33366 64.0365 5.33366 89.207 5.33366 114.377C5.33366 114.925 5.33366 115.437 5.40673 115.985C5.77205 118.798 7.16026 120.99 9.82709 122.049C11.1788 122.597 12.7496 122.743 14.2474 122.743C54.8709 122.78 95.4579 122.78 136.081 122.78C136.52 122.78 136.958 122.78 137.396 122.78C142.109 122.524 144.995 119.492 145.032 114.743C145.068 111.345 145.032 107.911 145.032 104.514C145.032 94.7964 145.032 85.0424 145.032 75.3249ZM145.032 42.6288C145.032 36.3453 144.995 31.925 145.068 27.5046C145.105 25.9703 144.484 25.13 143.132 24.4725C130.857 18.5543 118.619 12.6361 106.381 6.6449C103.824 5.40281 101.376 5.36628 98.8553 6.6449C94.2888 8.90987 89.6858 11.1018 85.0828 13.3302C77.3746 17.0565 69.6663 20.7827 61.9946 24.509C61.0813 24.9474 60.2776 25.4223 60.2776 26.6278C60.3872 35.9069 59.9854 45.2591 60.6795 54.5017C61.9581 71.0506 69.0088 85.1154 81.247 96.2942C87.3843 101.884 94.1427 106.815 100.645 112.003C102.07 113.135 103.312 113.026 104.883 111.82C110.472 107.4 116.135 103.126 121.578 98.5592C133.524 88.5129 140.94 75.7633 143.936 60.4564C145.178 53.9172 145.068 47.3414 145.032 42.6288Z" fill="#545454"/>
<path d="M35.2898 92.8602C28.9698 92.8602 22.6133 92.8602 16.2932 92.8602C13.6264 92.8602 12.8592 92.093 12.8592 89.3531C12.8592 88.0745 12.8227 86.7959 13.0784 85.5903C13.6629 82.5947 15.4165 80.4028 18.0833 78.9415C20.3117 77.736 22.5402 76.5304 24.7686 75.3614C26.5952 74.375 27.0336 72.658 26.0107 70.7949C24.8052 68.5299 23.2708 66.3745 22.5402 63.9634C21.9192 61.8081 21.7 59.2508 22.2479 57.0954C22.8325 54.7939 22.7959 52.602 22.869 50.337C22.942 48.3643 23.417 46.5743 24.6225 45.0399C25.3532 44.1631 26.2299 43.3594 27.1432 42.6653C31.1252 39.7063 39.9294 39.7428 44.021 42.9941C46.3955 44.8938 47.5646 47.2318 47.7837 50.2274C48.0029 53.6249 48.4048 57.0224 48.6605 60.4564C48.8432 62.6483 47.8933 64.2557 46.6147 66.1188C45.19 68.2011 43.2903 70.32 43.2538 73.206C43.2173 74.2289 43.546 74.8134 44.4959 75.2153C46.907 76.3478 49.2816 77.5898 51.6927 78.7223C57.7204 81.6449 58.0127 86.2479 57.6474 90.8509C57.5378 92.1661 56.4783 92.8967 54.9075 92.8967C52.1676 92.9332 49.4642 92.8967 46.7243 92.8967C42.8885 92.8602 39.0891 92.8602 35.2898 92.8602ZM17.9006 87.7822C29.5178 87.7822 41.0619 87.7822 52.679 87.7822C52.679 85.5538 51.5465 84.1656 49.7199 83.2523C47.3819 82.0833 45.0073 80.9508 42.6693 79.7818C37.9567 77.4437 36.6415 72.5119 39.5641 68.0915C40.3312 66.9225 40.8792 65.6074 41.5368 64.3653C41.8656 63.7808 42.0117 62.9405 42.5231 62.6118C44.3497 61.3331 43.546 59.5796 43.473 57.9722C43.3999 56.7667 42.8885 55.5611 42.7789 54.3555C42.6693 53.0404 42.7789 51.7253 42.7423 50.4101C42.7423 48.8392 42.0848 47.6337 40.7331 46.7569C37.6644 44.7842 32.2942 44.8573 29.4082 47.1222C28.7141 47.6702 28.02 48.6566 27.9104 49.4968C27.5085 52.6751 28.1296 55.9264 26.9971 59.1047C26.5587 60.3833 26.9606 61.7715 27.8008 63.0501C28.7141 64.4384 28.9698 66.3015 29.9196 67.6532C31.1617 69.3702 31.3809 71.1237 31.4174 73.1329C31.454 76.092 30.2119 78.1378 27.5816 79.453C25.207 80.6585 22.869 81.9371 20.5309 83.2523C18.8139 84.2021 17.791 85.6269 17.9006 87.7822Z" fill="#66CCFF"/>
<path d="M35.509 102.797C29.3351 102.797 23.1247 102.797 16.9508 102.797C16.4028 102.797 15.8549 102.833 15.3434 102.724C14.2475 102.468 13.5899 101.737 13.4803 100.568C13.3707 99.4359 13.8821 98.5226 14.9416 98.1208C15.5626 97.8651 16.2567 97.8285 16.9508 97.8285C29.3717 97.8285 41.7925 97.8285 54.2134 97.8285C54.8344 97.8285 55.492 97.8651 56.0765 98.0477C57.209 98.4496 57.7935 99.3263 57.6839 100.532C57.5743 101.737 56.8802 102.505 55.6746 102.724C55.1632 102.833 54.6152 102.797 54.0672 102.797C47.8568 102.797 41.6829 102.797 35.509 102.797Z" fill="#66CCFF"/>
<path d="M25.4627 112.77C22.2845 112.77 19.1427 112.807 15.9644 112.77C14.4301 112.734 13.5168 111.82 13.4803 110.469C13.4072 109.117 14.2474 108.131 15.7453 107.911C16.2202 107.838 16.7316 107.838 17.2065 107.838C22.1383 107.838 27.0336 107.838 31.9654 107.838C33.1344 107.838 34.3035 107.802 35.4725 107.911C36.9338 108.057 37.8471 109.153 37.8105 110.432C37.774 111.747 36.7876 112.66 35.3264 112.77C34.9245 112.807 34.5592 112.807 34.1573 112.807C31.1982 112.77 28.3488 112.77 25.4627 112.77Z" fill="#66CCFF"/>
<path d="M102.399 25.7146C115.989 25.605 127.168 36.6741 127.314 50.4101C127.46 64.0365 116.391 75.2153 102.691 75.3614C88.9917 75.471 77.7764 64.4018 77.7034 50.6293C77.5938 37.0029 88.6995 25.8241 102.399 25.7146ZM102.618 30.7194C91.6586 30.6829 82.7448 39.5601 82.6717 50.5562C82.6352 61.4793 91.4394 70.3565 102.399 70.3931C113.432 70.4296 122.309 61.5889 122.309 50.6293C122.345 39.6332 113.541 30.756 102.618 30.7194Z" fill="#66CCFF"/>
<path d="M98.3804 54.319C101.814 50.885 104.956 47.7433 108.134 44.6015C108.536 44.1997 108.975 43.7613 109.45 43.4691C110.546 42.8115 111.642 42.9211 112.518 43.8344C113.395 44.7477 113.432 45.8436 112.774 46.9031C112.628 47.1588 112.409 47.378 112.226 47.5606C108.354 51.433 104.518 55.3054 100.645 59.1412C99.1841 60.566 97.9055 60.566 96.4442 59.1778C95.2387 58.0453 94.0697 56.8763 92.9372 55.6707C91.7316 54.3921 91.6951 52.9308 92.7545 51.9079C93.7774 50.9581 95.2021 50.9946 96.4077 52.1271C97.1018 52.7116 97.6498 53.4788 98.3804 54.319Z" fill="#66CCFF"/>
</svg>
