<svg width="96" height="24" viewBox="0 0 96 24" fill="none" xmlns="http://www.w3.org/2000/svg">
<rect width="96" height="24" rx="4" fill="#DC3545"/>
<path d="M22.5093 6.77V16.5H20.9133V6.77H22.5093ZM28.4967 8.66C29.1034 8.66 29.6447 8.786 30.1207 9.038C30.606 9.29 30.984 9.66333 31.2547 10.158C31.5254 10.6527 31.6607 11.25 31.6607 11.95V16.5H30.0787V12.188C30.0787 11.4973 29.906 10.97 29.5607 10.606C29.2154 10.2327 28.744 10.046 28.1467 10.046C27.5494 10.046 27.0734 10.2327 26.7187 10.606C26.3734 10.97 26.2007 11.4973 26.2007 12.188V16.5H24.6047V8.786H26.2007V9.668C26.462 9.35067 26.7934 9.10333 27.1947 8.926C27.6054 8.74867 28.0394 8.66 28.4967 8.66ZM33.1645 12.608C33.1645 11.8333 33.3232 11.1473 33.6405 10.55C33.9672 9.95267 34.4058 9.49067 34.9565 9.164C35.5165 8.828 36.1325 8.66 36.8045 8.66C37.4112 8.66 37.9385 8.78133 38.3865 9.024C38.8438 9.25733 39.2078 9.55133 39.4785 9.906V8.786H41.0885V16.5H39.4785V15.352C39.2078 15.716 38.8392 16.0193 38.3725 16.262C37.9058 16.5047 37.3738 16.626 36.7765 16.626C36.1138 16.626 35.5072 16.458 34.9565 16.122C34.4058 15.7767 33.9672 15.3007 33.6405 14.694C33.3232 14.078 33.1645 13.3827 33.1645 12.608ZM39.4785 12.636C39.4785 12.104 39.3665 11.642 39.1425 11.25C38.9278 10.858 38.6432 10.5593 38.2885 10.354C37.9338 10.1487 37.5512 10.046 37.1405 10.046C36.7298 10.046 36.3472 10.1487 35.9925 10.354C35.6378 10.55 35.3485 10.844 35.1245 11.236C34.9098 11.6187 34.8025 12.076 34.8025 12.608C34.8025 13.14 34.9098 13.6067 35.1245 14.008C35.3485 14.4093 35.6378 14.7173 35.9925 14.932C36.3565 15.1373 36.7392 15.24 37.1405 15.24C37.5512 15.24 37.9338 15.1373 38.2885 14.932C38.6432 14.7267 38.9278 14.428 39.1425 14.036C39.3665 13.6347 39.4785 13.168 39.4785 12.636ZM42.6528 12.636C42.6528 11.8427 42.8114 11.1473 43.1288 10.55C43.4554 9.94333 43.9034 9.47667 44.4728 9.15C45.0421 8.82333 45.6954 8.66 46.4328 8.66C47.3661 8.66 48.1361 8.884 48.7428 9.332C49.3588 9.77067 49.7741 10.4007 49.9888 11.222H48.2668C48.1268 10.8393 47.9028 10.5407 47.5948 10.326C47.2868 10.1113 46.8994 10.004 46.4328 10.004C45.7794 10.004 45.2568 10.2373 44.8648 10.704C44.4821 11.1613 44.2908 11.8053 44.2908 12.636C44.2908 13.4667 44.4821 14.1153 44.8648 14.582C45.2568 15.0487 45.7794 15.282 46.4328 15.282C47.3568 15.282 47.9681 14.876 48.2668 14.064H49.9888C49.7648 14.848 49.3448 15.4733 48.7288 15.94C48.1128 16.3973 47.3474 16.626 46.4328 16.626C45.6954 16.626 45.0421 16.4627 44.4728 16.136C43.9034 15.8 43.4554 15.3333 43.1288 14.736C42.8114 14.1293 42.6528 13.4293 42.6528 12.636ZM53.4413 10.088V14.358C53.4413 14.6473 53.5066 14.8573 53.6373 14.988C53.7773 15.1093 54.0106 15.17 54.3373 15.17H55.3173V16.5H54.0573C53.3386 16.5 52.788 16.332 52.4053 15.996C52.0226 15.66 51.8313 15.114 51.8313 14.358V10.088H50.9213V8.786H51.8313V6.868H53.4413V8.786H55.3173V10.088H53.4413ZM57.6003 7.764C57.3109 7.764 57.0683 7.666 56.8723 7.47C56.6763 7.274 56.5783 7.03133 56.5783 6.742C56.5783 6.45267 56.6763 6.21 56.8723 6.014C57.0683 5.818 57.3109 5.72 57.6003 5.72C57.8803 5.72 58.1183 5.818 58.3143 6.014C58.5103 6.21 58.6083 6.45267 58.6083 6.742C58.6083 7.03133 58.5103 7.274 58.3143 7.47C58.1183 7.666 57.8803 7.764 57.6003 7.764ZM58.3843 8.786V16.5H56.7883V8.786H58.3843ZM63.4617 15.072L65.6457 8.786H67.3397L64.3997 16.5H62.4957L59.5697 8.786H61.2777L63.4617 15.072ZM75.6161 12.454C75.6161 12.7433 75.5974 13.0047 75.5601 13.238H69.6661C69.7128 13.854 69.9414 14.3487 70.3521 14.722C70.7628 15.0953 71.2668 15.282 71.8641 15.282C72.7228 15.282 73.3294 14.9227 73.6841 14.204H75.4061C75.1728 14.9133 74.7481 15.4967 74.1321 15.954C73.5254 16.402 72.7694 16.626 71.8641 16.626C71.1268 16.626 70.4641 16.4627 69.8761 16.136C69.2974 15.8 68.8401 15.3333 68.5041 14.736C68.1774 14.1293 68.0141 13.4293 68.0141 12.636C68.0141 11.8427 68.1728 11.1473 68.4901 10.55C68.8168 9.94333 69.2694 9.47667 69.8481 9.15C70.4361 8.82333 71.1081 8.66 71.8641 8.66C72.5921 8.66 73.2408 8.81867 73.8101 9.136C74.3794 9.45333 74.8228 9.90133 75.1401 10.48C75.4574 11.0493 75.6161 11.7073 75.6161 12.454ZM73.9501 11.95C73.9408 11.362 73.7308 10.8907 73.3201 10.536C72.9094 10.1813 72.4008 10.004 71.7941 10.004C71.2434 10.004 70.7721 10.1813 70.3801 10.536C69.9881 10.8813 69.7548 11.3527 69.6801 11.95H73.9501Z" fill="white"/>
</svg>
