<svg width="96" height="24" viewBox="0 0 96 24" fill="none" xmlns="http://www.w3.org/2000/svg">
<rect width="96" height="24" rx="4" fill="#20C997"/>
<path d="M33.0342 14.512H28.9602L28.2602 16.5H26.5942L30.0802 6.756H31.9282L35.4142 16.5H33.7342L33.0342 14.512ZM32.5862 13.21L31.0042 8.688L29.4082 13.21H32.5862ZM36.3979 12.636C36.3979 11.8427 36.5565 11.1473 36.8739 10.55C37.2005 9.94333 37.6485 9.47667 38.2179 9.15C38.7872 8.82333 39.4405 8.66 40.1779 8.66C41.1112 8.66 41.8812 8.884 42.4879 9.332C43.1039 9.77067 43.5192 10.4007 43.7339 11.222H42.0119C41.8719 10.8393 41.6479 10.5407 41.3399 10.326C41.0319 10.1113 40.6445 10.004 40.1779 10.004C39.5245 10.004 39.0019 10.2373 38.6099 10.704C38.2272 11.1613 38.0359 11.8053 38.0359 12.636C38.0359 13.4667 38.2272 14.1153 38.6099 14.582C39.0019 15.0487 39.5245 15.282 40.1779 15.282C41.1019 15.282 41.7132 14.876 42.0119 14.064H43.7339C43.5099 14.848 43.0899 15.4733 42.4739 15.94C41.8579 16.3973 41.0925 16.626 40.1779 16.626C39.4405 16.626 38.7872 16.4627 38.2179 16.136C37.6485 15.8 37.2005 15.3333 36.8739 14.736C36.5565 14.1293 36.3979 13.4293 36.3979 12.636ZM47.1864 10.088V14.358C47.1864 14.6473 47.2517 14.8573 47.3824 14.988C47.5224 15.1093 47.7557 15.17 48.0824 15.17H49.0624V16.5H47.8024C47.0837 16.5 46.5331 16.332 46.1504 15.996C45.7677 15.66 45.5764 15.114 45.5764 14.358V10.088H44.6664V8.786H45.5764V6.868H47.1864V8.786H49.0624V10.088H47.1864ZM51.3454 7.764C51.0561 7.764 50.8134 7.666 50.6174 7.47C50.4214 7.274 50.3234 7.03133 50.3234 6.742C50.3234 6.45267 50.4214 6.21 50.6174 6.014C50.8134 5.818 51.0561 5.72 51.3454 5.72C51.6254 5.72 51.8634 5.818 52.0594 6.014C52.2554 6.21 52.3534 6.45267 52.3534 6.742C52.3534 7.03133 52.2554 7.274 52.0594 7.47C51.8634 7.666 51.6254 7.764 51.3454 7.764ZM52.1294 8.786V16.5H50.5334V8.786H52.1294ZM57.2068 15.072L59.3908 8.786H61.0848L58.1448 16.5H56.2408L53.3148 8.786H55.0228L57.2068 15.072ZM69.3612 12.454C69.3612 12.7433 69.3425 13.0047 69.3052 13.238H63.4112C63.4579 13.854 63.6865 14.3487 64.0972 14.722C64.5079 15.0953 65.0119 15.282 65.6092 15.282C66.4679 15.282 67.0745 14.9227 67.4292 14.204H69.1512C68.9179 14.9133 68.4932 15.4967 67.8772 15.954C67.2705 16.402 66.5145 16.626 65.6092 16.626C64.8719 16.626 64.2092 16.4627 63.6212 16.136C63.0425 15.8 62.5852 15.3333 62.2492 14.736C61.9225 14.1293 61.7592 13.4293 61.7592 12.636C61.7592 11.8427 61.9179 11.1473 62.2352 10.55C62.5619 9.94333 63.0145 9.47667 63.5932 9.15C64.1812 8.82333 64.8532 8.66 65.6092 8.66C66.3372 8.66 66.9859 8.81867 67.5552 9.136C68.1245 9.45333 68.5679 9.90133 68.8852 10.48C69.2025 11.0493 69.3612 11.7073 69.3612 12.454ZM67.6952 11.95C67.6859 11.362 67.4759 10.8907 67.0652 10.536C66.6545 10.1813 66.1459 10.004 65.5392 10.004C64.9885 10.004 64.5172 10.1813 64.1252 10.536C63.7332 10.8813 63.4999 11.3527 63.4252 11.95H67.6952Z" fill="white"/>
</svg>
