<svg width="168" height="49" viewBox="0 0 168 49" fill="none" xmlns="http://www.w3.org/2000/svg">
<path d="M167.067 43.4029C167.067 45.9893 164.928 48.0843 162.283 48.0843H5.72359C3.07952 48.0843 0.933319 45.9893 0.933319 43.4029V6.06999C0.933319 3.48481 3.07952 1.38245 5.72359 1.38245H162.281C164.928 1.38245 167.065 3.48481 167.065 6.06999L167.067 43.4029Z" fill="#122738"/>
<path d="M161.778 1.43885C164.659 1.43885 167.003 3.72447 167.003 6.53334V42.9333C167.003 45.7422 164.659 48.0278 161.778 48.0278H6.22222C3.34133 48.0278 0.997111 45.7422 0.997111 42.9333V6.53334C0.997111 3.72447 3.34133 1.43885 6.22222 1.43885H161.778ZM161.778 0.466671H6.22222C2.80156 0.466671 0 3.19819 0 6.53334V42.9333C0 46.2685 2.80156 49 6.22222 49H161.778C165.198 49 168 46.2685 168 42.9333V6.53334C168 3.19819 165.198 0.466671 161.778 0.466671Z" fill="white"/>
<path d="M37.4926 24.4712C37.4565 20.5606 40.7767 18.6581 40.9285 18.5695C39.0482 15.8966 36.1337 15.5313 35.1095 15.5022C32.6617 15.2511 30.2873 16.9303 29.0404 16.9303C27.7685 16.9303 25.8484 15.5265 23.7789 15.5677C21.1157 15.6078 18.6244 17.1111 17.258 19.4456C14.4381 24.2055 16.5412 31.2003 19.2429 35.0478C20.5943 36.9321 22.1735 39.036 24.2405 38.962C26.2628 38.8807 27.0181 37.705 29.4585 37.705C31.8765 37.705 32.5858 38.962 34.6939 38.9147C36.8642 38.8807 38.2306 37.0219 39.5348 35.1206C41.0965 32.9609 41.7237 30.8339 41.7486 30.7247C41.6976 30.7077 37.5337 29.1583 37.4926 24.4712Z" fill="white"/>
<path d="M33.5104 12.9712C34.5981 11.645 35.3422 9.84081 35.1357 8.00989C33.5614 8.07783 31.5927 9.07155 30.459 10.3686C29.456 11.5116 28.56 13.385 28.7915 15.1467C30.5598 15.2753 32.3755 14.2768 33.5104 12.9712Z" fill="white"/>
<path d="M61.04 12.611C61.04 14.0391 60.6007 15.1141 59.7234 15.836C58.9108 16.5021 57.7559 16.8358 56.2601 16.8358C55.5184 16.8358 54.8837 16.8042 54.3524 16.7412V8.93821C55.0455 8.82901 55.7922 8.77319 56.5986 8.77319C58.0235 8.77319 59.0974 9.07531 59.8217 9.67955C60.6331 10.3627 61.04 11.3394 61.04 12.611ZM59.6649 12.6462C59.6649 11.7204 59.4135 11.0106 58.9108 10.5155C58.408 10.0217 57.6738 9.77419 56.7068 9.77419C56.2962 9.77419 55.9465 9.80089 55.6565 9.8567V15.7887C55.8171 15.813 56.1108 15.8239 56.5376 15.8239C57.5356 15.8239 58.306 15.5533 58.8485 15.0122C59.3911 14.471 59.6649 13.6823 59.6649 12.6462Z" fill="white"/>
<path d="M68.3312 13.8582C68.3312 14.7379 68.0736 15.4586 67.5584 16.024C67.0183 16.6052 66.3028 16.8952 65.4092 16.8952C64.5481 16.8952 63.8624 16.6173 63.3509 16.0592C62.8407 15.5023 62.5856 14.7997 62.5856 13.9528C62.5856 13.0671 62.8482 12.3403 63.3758 11.7761C63.9035 11.2119 64.6128 10.9292 65.5063 10.9292C66.3675 10.9292 67.0594 11.2071 67.5833 11.764C68.0811 12.3051 68.3312 13.004 68.3312 13.8582ZM66.9785 13.8994C66.9785 13.3716 66.8615 12.9191 66.6288 12.5417C66.355 12.0855 65.9655 11.8574 65.459 11.8574C64.9351 11.8574 64.5369 12.0855 64.2631 12.5417C64.0292 12.9191 63.9134 13.3789 63.9134 13.9225C63.9134 14.4503 64.0304 14.9029 64.2631 15.2802C64.5456 15.7364 64.9388 15.9645 65.4466 15.9645C65.9444 15.9645 66.3351 15.7328 66.6164 15.2681C66.8578 14.8835 66.9785 14.4272 66.9785 13.8994Z" fill="white"/>
<path d="M78.1076 11.0457L76.272 16.7653H75.0774L74.317 14.2816C74.1241 13.6616 73.9673 13.0452 73.8454 12.4337H73.8217C73.7085 13.0622 73.5517 13.6774 73.3501 14.2816L72.5424 16.7653H71.3341L69.608 11.0457H70.9483L71.6116 13.7647C71.7721 14.4078 71.904 15.0205 72.0098 15.6005H72.0335C72.1305 15.1225 72.291 14.5134 72.5175 13.7769L73.3501 11.0469H74.4128L75.2105 13.7186C75.4034 14.3702 75.5602 14.9975 75.6809 15.6017H75.717C75.8054 15.0133 75.9385 14.386 76.1152 13.7186L76.827 11.0469H78.1076V11.0457Z" fill="white"/>
<path d="M84.8686 16.7654H83.5645V13.4894C83.5645 12.4799 83.1712 11.9752 82.3822 11.9752C81.9952 11.9752 81.6829 12.1135 81.4402 12.3914C81.2 12.6692 81.0781 12.9968 81.0781 13.3717V16.7642H79.7739V12.6801C79.7739 12.1778 79.7577 11.633 79.7266 11.0434H80.8727L80.9337 11.9376H80.9698C81.1216 11.6597 81.3481 11.4304 81.6455 11.2472C81.9989 11.0336 82.3947 10.9257 82.8277 10.9257C83.3753 10.9257 83.8308 11.098 84.1929 11.4438C84.6434 11.8672 84.8686 12.4994 84.8686 13.339V16.7654Z" fill="white"/>
<path d="M88.4651 16.7654H87.1622V8.42126H88.4651V16.7654Z" fill="white"/>
<path d="M96.1433 13.8582C96.1433 14.7379 95.8857 15.4586 95.3705 16.024C94.8304 16.6052 94.1136 16.8952 93.2214 16.8952C92.359 16.8952 91.6733 16.6173 91.163 16.0592C90.6528 15.5023 90.3977 14.7997 90.3977 13.9528C90.3977 13.0671 90.6603 12.3403 91.1879 11.7761C91.7156 11.2119 92.4249 10.9292 93.3172 10.9292C94.1796 10.9292 94.8702 11.2071 95.3954 11.764C95.8932 12.3051 96.1433 13.004 96.1433 13.8582ZM94.7893 13.8994C94.7893 13.3716 94.6724 12.9191 94.4397 12.5417C94.1671 12.0855 93.7764 11.8574 93.2711 11.8574C92.746 11.8574 92.3477 12.0855 92.0752 12.5417C91.8413 12.9191 91.7255 13.3789 91.7255 13.9225C91.7255 14.4503 91.8425 14.9029 92.0752 15.2802C92.3577 15.7364 92.751 15.9645 93.2587 15.9645C93.7565 15.9645 94.146 15.7328 94.4272 15.2681C94.6699 14.8835 94.7893 14.4272 94.7893 13.8994Z" fill="white"/>
<path d="M102.455 16.7653H101.284L101.187 16.1065H101.151C100.75 16.6319 100.179 16.8952 99.4373 16.8952C98.8836 16.8952 98.4356 16.7217 98.0983 16.3771C97.7922 16.064 97.6391 15.6745 97.6391 15.2123C97.6391 14.5134 97.9378 13.9807 98.5389 13.6119C99.1387 13.243 99.9824 13.0622 101.069 13.0707V12.964C101.069 12.2105 100.663 11.8343 99.8505 11.8343C99.2718 11.8343 98.7616 11.9763 98.3211 12.2578L98.056 11.423C98.6011 11.0942 99.2743 10.9292 100.068 10.9292C101.601 10.9292 102.371 11.7179 102.371 13.2952V15.4015C102.371 15.973 102.399 16.428 102.455 16.7653ZM101.101 14.7997V13.9176C99.6626 13.8934 98.9433 14.278 98.9433 15.0703C98.9433 15.3688 99.0254 15.592 99.1934 15.7413C99.3614 15.8905 99.5755 15.9645 99.8306 15.9645C100.117 15.9645 100.384 15.876 100.628 15.7C100.873 15.5229 101.024 15.2984 101.08 15.023C101.094 14.9611 101.101 14.8859 101.101 14.7997Z" fill="white"/>
<path d="M109.866 16.7654H108.708L108.647 15.8469H108.611C108.242 16.5457 107.612 16.8952 106.727 16.8952C106.02 16.8952 105.432 16.6246 104.965 16.0835C104.499 15.5423 104.266 14.8398 104.266 13.9771C104.266 13.0513 104.518 12.3015 105.026 11.7288C105.518 11.1949 106.12 10.928 106.837 10.928C107.625 10.928 108.176 11.1865 108.489 11.7045H108.514V8.42126H109.82V15.2244C109.82 15.7813 109.835 16.2946 109.866 16.7654ZM108.514 14.3533V13.3996C108.514 13.2346 108.502 13.1011 108.478 12.9992C108.405 12.6934 108.247 12.4362 108.007 12.2287C107.764 12.0212 107.471 11.9169 107.134 11.9169C106.648 11.9169 106.267 12.1049 105.987 12.4823C105.709 12.8596 105.569 13.3413 105.569 13.9298C105.569 14.4952 105.702 14.9539 105.969 15.3069C106.252 15.6831 106.633 15.8711 107.109 15.8711C107.537 15.8711 107.88 15.7146 108.14 15.4004C108.391 15.1104 108.514 14.7609 108.514 14.3533Z" fill="white"/>
<path d="M121.02 13.8582C121.02 14.7379 120.762 15.4586 120.247 16.024C119.707 16.6052 118.993 16.8952 118.098 16.8952C117.238 16.8952 116.552 16.6173 116.039 16.0592C115.529 15.5023 115.274 14.7997 115.274 13.9528C115.274 13.0671 115.537 12.3403 116.064 11.7761C116.592 11.2119 117.301 10.9292 118.196 10.9292C119.056 10.9292 119.749 11.2071 120.272 11.764C120.77 12.3051 121.02 13.004 121.02 13.8582ZM119.668 13.8994C119.668 13.3716 119.551 12.9191 119.319 12.5417C119.044 12.0855 118.655 11.8574 118.148 11.8574C117.625 11.8574 117.227 12.0855 116.952 12.5417C116.718 12.9191 116.602 13.3789 116.602 13.9225C116.602 14.4503 116.719 14.9029 116.952 15.2802C117.234 15.7364 117.627 15.9645 118.135 15.9645C118.633 15.9645 119.025 15.7328 119.306 15.2681C119.546 14.8835 119.668 14.4272 119.668 13.8994Z" fill="white"/>
<path d="M128.032 16.7654H126.729V13.4894C126.729 12.4799 126.336 11.9752 125.546 11.9752C125.159 11.9752 124.846 12.1135 124.605 12.3914C124.364 12.6692 124.243 12.9968 124.243 13.3717V16.7642H122.937V12.6801C122.937 12.1778 122.923 11.633 122.891 11.0434H124.036L124.097 11.9376H124.133C124.286 11.6597 124.513 11.4304 124.809 11.2472C125.164 11.0336 125.558 10.9257 125.993 10.9257C126.539 10.9257 126.994 11.098 127.356 11.4438C127.808 11.8672 128.032 12.4994 128.032 13.339V16.7654Z" fill="white"/>
<path d="M136.809 11.9983H135.373V14.7768C135.373 15.483 135.628 15.836 136.134 15.836C136.368 15.836 136.562 15.8166 136.715 15.7766L136.748 16.7412C136.491 16.8358 136.152 16.8831 135.735 16.8831C135.22 16.8831 134.819 16.7303 134.529 16.4245C134.238 16.1187 134.094 15.6043 134.094 14.8824V11.9983H133.237V11.0458H134.094V9.99747L135.372 9.62134V11.0446H136.808V11.9983H136.809Z" fill="white"/>
<path d="M143.714 16.7654H142.408V13.5136C142.408 12.4884 142.015 11.9751 141.227 11.9751C140.622 11.9751 140.209 12.2724 139.983 12.8669C139.944 12.9919 139.922 13.1448 139.922 13.3243V16.7641H138.619V8.42126H139.922V11.8683H139.947C140.357 11.2411 140.946 10.928 141.709 10.928C142.249 10.928 142.696 11.1003 143.05 11.4461C143.492 11.8768 143.714 12.5175 143.714 13.3644V16.7654Z" fill="white"/>
<path d="M150.835 13.635C150.835 13.8631 150.818 14.0548 150.787 14.2113H146.876C146.893 14.7767 147.08 15.2075 147.442 15.5059C147.773 15.7729 148.2 15.9063 148.722 15.9063C149.301 15.9063 149.829 15.8166 150.304 15.6358L150.508 16.5191C149.952 16.7545 149.297 16.8722 148.539 16.8722C147.631 16.8722 146.915 16.6113 146.398 16.0896C145.877 15.5678 145.62 14.8677 145.62 13.9893C145.62 13.1266 145.86 12.4083 146.344 11.8356C146.849 11.2241 147.533 10.9183 148.395 10.9183C149.239 10.9183 149.88 11.2241 150.313 11.8356C150.662 12.3209 150.835 12.9215 150.835 13.635ZM149.591 13.3062C149.601 12.9288 149.515 12.6037 149.338 12.3294C149.112 11.9764 148.767 11.7992 148.3 11.7992C147.875 11.7992 147.528 11.9715 147.263 12.3173C147.046 12.5927 146.918 12.9215 146.876 13.3062H149.591Z" fill="white"/>
<path d="M66.7582 38.6915H63.9321L62.384 33.9486H57.003L55.5284 38.6915H52.7769L58.1081 22.5444H61.4009L66.7582 38.6915ZM61.9173 31.9587L60.5173 27.7424C60.3692 27.3116 60.0917 26.2973 59.6823 24.7005H59.6325C59.4695 25.3873 59.2069 26.4016 58.846 27.7424L57.4709 31.9587H61.9173Z" fill="white"/>
<path d="M80.4683 32.7268C80.4683 34.7069 79.9195 36.2721 78.8219 37.4211C77.8387 38.444 76.6179 38.9548 75.1607 38.9548C73.5877 38.9548 72.4578 38.4039 71.7696 37.3022H71.7198V43.4356H69.0667V30.8813C69.0667 29.6364 69.0331 28.3588 68.9684 27.0484H71.3017L71.4498 28.8938H71.4996C72.3844 27.5034 73.7271 26.8093 75.5291 26.8093C76.9378 26.8093 78.1138 27.3517 79.0546 28.4376C79.9979 29.5248 80.4683 30.9541 80.4683 32.7268ZM77.7653 32.8214C77.7653 31.6881 77.504 30.7539 76.9788 30.0186C76.4052 29.2518 75.6348 28.8684 74.6691 28.8684C74.0146 28.8684 73.4197 29.0819 72.8883 29.5029C72.3557 29.9276 72.0073 30.4821 71.8443 31.1688C71.7621 31.4892 71.7211 31.7512 71.7211 31.9575V33.8988C71.7211 34.7457 71.9874 35.4604 72.52 36.044C73.0526 36.6276 73.7445 36.9188 74.5957 36.9188C75.595 36.9188 76.3728 36.5427 76.9291 35.7928C77.4866 35.0418 77.7653 34.0517 77.7653 32.8214Z" fill="white"/>
<path d="M94.2032 32.7268C94.2032 34.7069 93.6544 36.2721 92.5556 37.4211C91.5737 38.444 90.3529 38.9548 88.8957 38.9548C87.3227 38.9548 86.1927 38.4039 85.5058 37.3022H85.456V43.4356H82.8029V30.8813C82.8029 29.6364 82.7693 28.3588 82.7046 27.0484H85.0379L85.186 28.8938H85.2358C86.1193 27.5034 87.4621 26.8093 89.2653 26.8093C90.6727 26.8093 91.8487 27.3517 92.792 28.4376C93.7316 29.5248 94.2032 30.9541 94.2032 32.7268ZM91.5003 32.8214C91.5003 31.6881 91.2377 30.7539 90.7126 30.0186C90.1389 29.2518 89.3711 28.8684 88.4041 28.8684C87.7483 28.8684 87.1547 29.0819 86.6221 29.5029C86.0895 29.9276 85.7422 30.4821 85.5792 31.1688C85.4983 31.4892 85.456 31.7512 85.456 31.9575V33.8988C85.456 34.7457 85.7223 35.4604 86.2525 36.044C86.7851 36.6264 87.477 36.9188 88.3307 36.9188C89.33 36.9188 90.1078 36.5427 90.664 35.7928C91.2215 35.0418 91.5003 34.0517 91.5003 32.8214Z" fill="white"/>
<path d="M109.56 34.1633C109.56 35.5368 109.071 36.6543 108.089 37.517C107.01 38.4598 105.508 38.9305 103.578 38.9305C101.796 38.9305 100.367 38.5956 99.2855 37.9247L99.9003 35.7686C101.065 36.4553 102.343 36.7999 103.736 36.7999C104.735 36.7999 105.513 36.5791 106.071 36.1399C106.628 35.7006 106.905 35.111 106.905 34.3757C106.905 33.7205 106.676 33.1684 106.217 32.7207C105.76 32.273 104.998 31.8568 103.932 31.4722C101.033 30.4178 99.5842 28.8732 99.5842 26.8421C99.5842 25.5147 100.092 24.4263 101.109 23.5794C102.122 22.7313 103.473 22.3079 105.163 22.3079C106.67 22.3079 107.922 22.5639 108.921 23.0747L108.258 25.1835C107.325 24.6884 106.269 24.4409 105.088 24.4409C104.155 24.4409 103.426 24.6654 102.903 25.1119C102.461 25.5111 102.24 25.9976 102.24 26.5739C102.24 27.2122 102.492 27.74 103 28.1549C103.442 28.5383 104.245 28.9533 105.409 29.401C106.834 29.9604 107.881 30.6143 108.554 31.3642C109.225 32.1116 109.56 33.0471 109.56 34.1633Z" fill="white"/>
<path d="M118.332 28.9896H115.407V34.6425C115.407 36.0803 115.923 36.7986 116.955 36.7986C117.43 36.7986 117.823 36.7586 118.134 36.6785L118.207 38.6429C117.685 38.8334 116.996 38.9293 116.144 38.9293C115.096 38.9293 114.277 38.6174 113.686 37.995C113.098 37.3713 112.801 36.3254 112.801 34.8561V28.9872H111.059V27.0459H112.801V24.914L115.407 24.1472V27.0459H118.332V28.9896Z" fill="white"/>
<path d="M131.527 32.7741C131.527 34.5637 131.001 36.0331 129.954 37.1821C128.855 38.3651 127.396 38.9548 125.578 38.9548C123.826 38.9548 122.431 38.3882 121.391 37.2549C120.35 36.1217 119.83 34.6911 119.83 32.967C119.83 31.1628 120.365 29.6849 121.439 28.5359C122.511 27.3857 123.957 26.8105 125.775 26.8105C127.527 26.8105 128.937 27.3772 130.001 28.5116C131.019 29.6121 131.527 31.0329 131.527 32.7741ZM128.774 32.8578C128.774 31.784 128.539 30.8631 128.062 30.095C127.506 29.1656 126.711 28.7021 125.68 28.7021C124.614 28.7021 123.804 29.1668 123.247 30.095C122.771 30.8643 122.535 31.7998 122.535 32.9063C122.535 33.9801 122.771 34.9011 123.247 35.6679C123.821 36.5973 124.622 37.0608 125.657 37.0608C126.67 37.0608 127.465 36.5876 128.038 35.6436C128.527 34.861 128.774 33.9304 128.774 32.8578Z" fill="white"/>
<path d="M140.151 29.3234C139.888 29.276 139.608 29.2518 139.314 29.2518C138.381 29.2518 137.659 29.5951 137.151 30.2831C136.71 30.8898 136.488 31.6566 136.488 32.5824V38.6915H133.836L133.861 30.715C133.861 29.3731 133.828 28.1513 133.762 27.0496H136.073L136.17 29.2772H136.243C136.523 28.5116 136.965 27.8953 137.57 27.433C138.161 27.0168 138.799 26.8093 139.487 26.8093C139.732 26.8093 139.954 26.8263 140.151 26.8566V29.3234Z" fill="white"/>
<path d="M152.016 32.3191C152.016 32.7826 151.985 33.1732 151.919 33.4924H143.96C143.991 34.6426 144.375 35.5223 145.115 36.1289C145.785 36.6713 146.653 36.9431 147.718 36.9431C148.897 36.9431 149.972 36.7599 150.939 36.3922L151.354 38.188C150.224 38.6684 148.89 38.9075 147.351 38.9075C145.499 38.9075 144.046 38.376 142.988 37.3144C141.933 36.2527 141.404 34.827 141.404 33.0386C141.404 31.2829 141.895 29.8208 142.88 28.6548C143.91 27.4099 145.303 26.7875 147.055 26.7875C148.776 26.7875 150.079 27.4099 150.964 28.6548C151.664 29.6437 152.016 30.8667 152.016 32.3191ZM149.486 31.6481C149.504 30.8813 149.331 30.2188 148.971 29.6594C148.512 28.9399 147.806 28.5808 146.857 28.5808C145.99 28.5808 145.284 28.9314 144.745 29.6352C144.303 30.1945 144.041 30.8655 143.96 31.6469H149.486V31.6481Z" fill="white"/>
</svg>
