<svg width="14" height="14" viewBox="0 0 14 14" fill="none" xmlns="http://www.w3.org/2000/svg">
<path d="M8.81333 4.86016L5.95333 7.72683L4.85333 6.62683C4.79357 6.55704 4.72002 6.50036 4.63731 6.46035C4.5546 6.42033 4.46451 6.39784 4.3727 6.3943C4.28089 6.39075 4.18933 6.40622 4.10378 6.43974C4.01823 6.47325 3.94053 6.52409 3.87556 6.58906C3.81059 6.65403 3.75976 6.73173 3.72624 6.81728C3.69272 6.90283 3.67725 6.99439 3.6808 7.0862C3.68435 7.17801 3.70683 7.2681 3.74685 7.35081C3.78686 7.43352 3.84354 7.50707 3.91333 7.56683L5.48 9.14016C5.54229 9.20195 5.61617 9.25083 5.69739 9.28401C5.77862 9.31719 5.86559 9.334 5.95333 9.3335C6.12823 9.33276 6.29582 9.26333 6.42 9.14016L9.75333 5.80683C9.81582 5.74485 9.86541 5.67112 9.89926 5.58988C9.93311 5.50864 9.95053 5.4215 9.95053 5.3335C9.95053 5.24549 9.93311 5.15835 9.89926 5.07711C9.86541 4.99587 9.81582 4.92214 9.75333 4.86016C9.62842 4.736 9.45946 4.6663 9.28333 4.6663C9.10721 4.6663 8.93824 4.736 8.81333 4.86016ZM7 0.333496C5.68146 0.333496 4.39252 0.724489 3.2962 1.45703C2.19987 2.18957 1.34539 3.23077 0.840801 4.44894C0.336217 5.66711 0.204195 7.00756 0.461429 8.30076C0.718664 9.59397 1.3536 10.7819 2.28595 11.7142C3.2183 12.6466 4.40619 13.2815 5.6994 13.5387C6.9926 13.796 8.33305 13.6639 9.55122 13.1594C10.7694 12.6548 11.8106 11.8003 12.5431 10.704C13.2757 9.60764 13.6667 8.31871 13.6667 7.00016C13.6667 6.12468 13.4942 5.25778 13.1592 4.44894C12.8242 3.6401 12.3331 2.90517 11.714 2.28612C11.095 1.66706 10.3601 1.176 9.55122 0.840966C8.74238 0.505935 7.87548 0.333496 7 0.333496V0.333496ZM7 12.3335C5.94516 12.3335 4.91402 12.0207 4.03696 11.4347C3.15989 10.8486 2.47631 10.0157 2.07264 9.04114C1.66897 8.0666 1.56336 6.99425 1.76914 5.95968C1.97493 4.92512 2.48288 3.97481 3.22876 3.22893C3.97464 2.48305 4.92495 1.9751 5.95952 1.76931C6.99408 1.56352 8.06644 1.66914 9.04098 2.07281C10.0155 2.47647 10.8485 3.16006 11.4345 4.03712C12.0205 4.91418 12.3333 5.94533 12.3333 7.00016C12.3333 8.41465 11.7714 9.77121 10.7712 10.7714C9.77104 11.7716 8.41449 12.3335 7 12.3335V12.3335Z" fill="#20C997"/>
</svg>
