<svg width="16" height="17" viewBox="0 0 16 17" fill="none" xmlns="http://www.w3.org/2000/svg">
<path d="M11.6333 15.6667C10.88 15.6667 10.0867 15.4867 9.26667 15.14C8.46667 14.8 7.66 14.3334 6.87334 13.7667C6.09334 13.1934 5.34 12.5534 4.62667 11.8534C3.92 11.14 3.28 10.3867 2.71334 9.61337C2.14 8.81337 1.68 8.01337 1.35334 7.24004C1.00667 6.41337 0.833336 5.61337 0.833336 4.86004C0.833336 4.34004 0.926669 3.84671 1.10667 3.38671C1.29334 2.91337 1.59334 2.47337 2 2.09337C2.51334 1.58671 3.1 1.33337 3.72667 1.33337C3.98667 1.33337 4.25334 1.39337 4.48 1.50004C4.74 1.62004 4.96 1.80004 5.12 2.04004L6.66667 4.22004C6.80667 4.41337 6.91334 4.60004 6.98667 4.78671C7.07334 4.98671 7.12 5.18671 7.12 5.38004C7.12 5.63337 7.04667 5.88004 6.90667 6.11337C6.80667 6.29337 6.65334 6.48671 6.46 6.68004L6.00667 7.15337C6.01334 7.17337 6.02 7.18671 6.02667 7.20004C6.10667 7.34004 6.26667 7.58004 6.57334 7.94004C6.9 8.31337 7.20667 8.65337 7.51334 8.96671C7.90667 9.35337 8.23334 9.66004 8.54 9.91337C8.92 10.2334 9.16667 10.3934 9.31334 10.4667L9.3 10.5L9.78667 10.02C9.99334 9.81337 10.1933 9.66004 10.3867 9.56004C10.7533 9.33337 11.22 9.29337 11.6867 9.48671C11.86 9.56004 12.0467 9.66004 12.2467 9.80004L14.46 11.3734C14.7067 11.54 14.8867 11.7534 14.9933 12.0067C15.0933 12.26 15.14 12.4934 15.14 12.7267C15.14 13.0467 15.0667 13.3667 14.9267 13.6667C14.7867 13.9667 14.6133 14.2267 14.3933 14.4667C14.0133 14.8867 13.6 15.1867 13.12 15.38C12.66 15.5667 12.16 15.6667 11.6333 15.6667ZM3.72667 2.33337C3.36 2.33337 3.02 2.49337 2.69334 2.81337C2.38667 3.10004 2.17334 3.41337 2.04 3.75337C1.9 4.10004 1.83334 4.46671 1.83334 4.86004C1.83334 5.48004 1.98 6.15337 2.27334 6.84671C2.57334 7.55337 2.99334 8.28671 3.52667 9.02004C4.06 9.75337 4.66667 10.4667 5.33334 11.14C6 11.8 6.72 12.4134 7.46 12.9534C8.18 13.48 8.92 13.9067 9.65334 14.2134C10.7933 14.7 11.86 14.8134 12.74 14.4467C13.08 14.3067 13.38 14.0934 13.6533 13.7867C13.8067 13.62 13.9267 13.44 14.0267 13.2267C14.1067 13.06 14.1467 12.8867 14.1467 12.7134C14.1467 12.6067 14.1267 12.5 14.0733 12.38C14.0533 12.34 14.0133 12.2667 13.8867 12.18L11.6733 10.6067C11.54 10.5134 11.42 10.4467 11.3067 10.4C11.16 10.34 11.1 10.28 10.8733 10.42C10.74 10.4867 10.62 10.5867 10.4867 10.72L9.98 11.22C9.72 11.4734 9.32 11.5334 9.01334 11.42L8.83334 11.34C8.56 11.1934 8.24 10.9667 7.88667 10.6667C7.56667 10.3934 7.22 10.0734 6.8 9.66004C6.47334 9.32671 6.14667 8.97337 5.80667 8.58004C5.49334 8.21337 5.26667 7.90004 5.12667 7.64004L5.04667 7.44004C5.00667 7.28671 4.99334 7.20004 4.99334 7.10671C4.99334 6.86671 5.08 6.65337 5.24667 6.48671L5.74667 5.96671C5.88 5.83337 5.98 5.70671 6.04667 5.59337C6.1 5.50671 6.12 5.43337 6.12 5.36671C6.12 5.31337 6.1 5.23337 6.06667 5.15337C6.02 5.04671 5.94667 4.92671 5.85334 4.80004L4.30667 2.61337C4.24 2.52004 4.16 2.45337 4.06 2.40671C3.95334 2.36004 3.84 2.33337 3.72667 2.33337ZM9.3 10.5067L9.19334 10.96L9.37334 10.4934C9.34 10.4867 9.31334 10.4934 9.3 10.5067Z" fill="white"/>
</svg>
