<svg width="40" height="40" viewBox="0 0 40 40" fill="none" xmlns="http://www.w3.org/2000/svg">
<g clip-path="url(#clip0_1120_155214)">
<rect width="40" height="40" rx="20" fill="white"/>
<mask id="mask0_1120_155214" style="mask-type:alpha" maskUnits="userSpaceOnUse" x="8" y="8" width="24" height="24">
<rect x="8" y="8" width="24" height="24" fill="#D9D9D9"/>
</mask>
<g mask="url(#mask0_1120_155214)">
<path d="M12 26C11.7167 26 11.4792 25.9042 11.2875 25.7125C11.0958 25.5208 11 25.2833 11 25C11 24.7167 11.0958 24.4792 11.2875 24.2875C11.4792 24.0958 11.7167 24 12 24H28C28.2833 24 28.5208 24.0958 28.7125 24.2875C28.9042 24.4792 29 24.7167 29 25C29 25.2833 28.9042 25.5208 28.7125 25.7125C28.5208 25.9042 28.2833 26 28 26H12ZM12 21C11.7167 21 11.4792 20.9042 11.2875 20.7125C11.0958 20.5208 11 20.2833 11 20C11 19.7167 11.0958 19.4792 11.2875 19.2875C11.4792 19.0958 11.7167 19 12 19H28C28.2833 19 28.5208 19.0958 28.7125 19.2875C28.9042 19.4792 29 19.7167 29 20C29 20.2833 28.9042 20.5208 28.7125 20.7125C28.5208 20.9042 28.2833 21 28 21H12ZM12 16C11.7167 16 11.4792 15.9042 11.2875 15.7125C11.0958 15.5208 11 15.2833 11 15C11 14.7167 11.0958 14.4792 11.2875 14.2875C11.4792 14.0958 11.7167 14 12 14H28C28.2833 14 28.5208 14.0958 28.7125 14.2875C28.9042 14.4792 29 14.7167 29 15C29 15.2833 28.9042 15.5208 28.7125 15.7125C28.5208 15.9042 28.2833 16 28 16H12Z" fill="#8D8D8D"/>
</g>
</g>
<defs>
<clipPath id="clip0_1120_155214">
<rect width="40" height="40" rx="20" fill="white"/>
</clipPath>
</defs>
</svg>
