<svg width="32" height="32" viewBox="0 0 32 32" fill="none" xmlns="http://www.w3.org/2000/svg">
<rect width="32" height="32" rx="16" fill="#F5F5F5"/>
<mask id="mask0_1459_321831" style="mask-type:alpha" maskUnits="userSpaceOnUse" x="8" y="8" width="16" height="16">
<rect x="8" y="8" width="16" height="16" fill="#D9D9D9"/>
</mask>
<g mask="url(#mask0_1459_321831)">
<path d="M16 16.9333L12.7333 20.2C12.6111 20.3222 12.4555 20.3833 12.2666 20.3833C12.0777 20.3833 11.9222 20.3222 11.8 20.2C11.6777 20.0778 11.6166 19.9222 11.6166 19.7333C11.6166 19.5444 11.6777 19.3889 11.8 19.2667L15.0666 16L11.8 12.7333C11.6777 12.6111 11.6166 12.4556 11.6166 12.2667C11.6166 12.0778 11.6777 11.9222 11.8 11.8C11.9222 11.6778 12.0777 11.6167 12.2666 11.6167C12.4555 11.6167 12.6111 11.6778 12.7333 11.8L16 15.0667L19.2666 11.8C19.3889 11.6778 19.5444 11.6167 19.7333 11.6167C19.9222 11.6167 20.0777 11.6778 20.2 11.8C20.3222 11.9222 20.3833 12.0778 20.3833 12.2667C20.3833 12.4556 20.3222 12.6111 20.2 12.7333L16.9333 16L20.2 19.2667C20.3222 19.3889 20.3833 19.5444 20.3833 19.7333C20.3833 19.9222 20.3222 20.0778 20.2 20.2C20.0777 20.3222 19.9222 20.3833 19.7333 20.3833C19.5444 20.3833 19.3889 20.3222 19.2666 20.2L16 16.9333Z" fill="#8D8D8D"/>
</g>
</svg>
