<svg width="76" height="92" viewBox="0 0 76 92" fill="none" xmlns="http://www.w3.org/2000/svg">
<path d="M17.9073 58.3566C17.8323 57.3061 18.5325 56.9309 19.4077 56.6807C21.8583 55.9804 24.309 55.23 26.7596 54.4296C27.1597 54.3045 27.6598 53.9043 27.7849 53.5041C28.235 51.9283 28.5851 50.3024 28.9352 48.7016C28.9852 48.4765 28.7601 48.1013 28.5601 47.9512C25.6093 45.4499 23.9589 42.1732 23.0586 38.4713C22.9336 37.921 22.7586 37.6208 22.2084 37.4207C20.4079 36.7454 19.3827 35.3946 19.0826 33.5437C18.9326 32.6682 18.9076 31.7428 18.9576 30.8423C19.0826 29.2915 19.7578 27.9658 21.1581 27.0403C19.5827 24.4139 18.5575 21.6125 18.2324 18.5859C17.7072 13.8584 18.9076 9.78131 22.8586 6.82977C24.634 5.50408 26.6846 4.92878 28.8852 4.70366C29.2603 4.67865 29.7354 4.5786 29.9604 4.32847C33.5364 0.726592 37.8375 -0.0237989 42.5887 1.00174C46.0896 1.75213 49.3155 3.15286 51.9662 5.65416C55.4921 9.00591 56.6424 13.2081 56.3173 17.9356C56.1173 20.9871 55.267 23.8887 54.1417 26.6901C57.0925 28.5661 58.0427 32.5182 56.0922 35.4447C55.5421 36.2701 54.4918 36.7704 53.7166 37.4457C53.4165 37.6958 53.0164 37.971 52.9164 38.3212C51.9912 42.1232 50.3157 45.4499 47.29 48.0512C47.0899 48.2263 46.9399 48.6015 46.9899 48.8517C47.34 50.4525 47.6901 52.0783 48.1402 53.6542C48.2402 53.9793 48.6903 54.3295 49.0404 54.4296C51.516 55.23 53.9917 55.9554 56.4673 56.6807C57.3176 56.9309 57.9927 57.2811 57.9177 58.1815C59.7432 58.5067 61.5187 58.6568 63.2191 59.132C70.471 61.1331 75.5723 67.7365 75.6723 75.2404C75.7474 80.0929 75.6974 84.9205 75.6974 89.773C75.6974 90.9986 75.2722 91.3988 74.0719 91.3988C50.0157 91.3988 25.9344 91.3988 1.87812 91.3988C0.652801 91.3988 0.252697 90.9986 0.252697 89.773C0.252697 85.0205 0.202684 80.268 0.252697 75.5155C0.352723 67.0361 6.42931 59.9574 14.8065 58.6067C15.8318 58.4567 16.832 58.4567 17.9073 58.3566ZM29.5103 14.6588C28.0349 15.7344 26.9847 17.1351 26.2095 18.711C24.8341 21.4374 24.534 24.3639 24.7341 27.3655C24.8091 28.6161 24.509 28.9913 23.2837 29.1664C22.8586 29.2164 22.3334 29.3915 22.0584 29.7167C20.533 31.4676 21.6833 34.8194 23.9339 35.2446C24.8091 35.4197 25.1592 35.8699 25.3592 36.6953C25.7343 38.2711 26.0844 39.872 26.7346 41.3478C29.9604 48.5265 38.4877 50.9277 44.9893 46.5004C48.3902 44.1992 49.8906 40.6974 50.5408 36.7954C50.6908 35.8949 51.0409 35.3696 51.9662 35.2446C52.9164 35.1195 53.8417 34.7193 54.0417 33.7438C54.2668 32.6432 54.2418 31.4676 54.1417 30.342C54.0667 29.4916 53.3415 29.1414 52.4913 29.1414C51.191 29.1414 50.8409 28.7662 50.7408 27.5155C50.5658 25.3394 49.9907 23.2633 48.6653 21.4874C47.365 19.7615 45.7145 18.9111 43.4139 19.0611C41.5635 19.1862 39.663 18.9861 37.8375 18.6609C34.7367 18.1106 31.986 16.6349 29.5103 14.6588ZM73.1217 88.7725C73.1217 84.12 73.2217 79.5677 73.0967 75.0153C72.9716 70.2878 70.7961 66.5109 66.9701 63.7594C65.9198 62.984 64.6945 62.4587 63.5442 61.8084C63.4692 61.8834 63.4191 61.9585 63.3441 62.0335C64.4944 64.4848 65.0946 67.0862 65.3197 69.7626C65.3697 70.4879 65.5947 70.8631 66.3199 71.1883C68.2954 72.0638 69.3207 73.7396 69.2957 75.8907C69.2707 78.0919 68.1454 79.7177 66.0948 80.5432C64.0943 81.3686 62.2188 80.9684 60.6434 79.4926C57.9927 76.9663 58.7679 72.6891 62.0938 71.1383C62.3689 71.0132 62.769 70.663 62.744 70.4379C62.5189 67.3863 61.9438 64.4348 60.1933 61.8334C59.8182 61.2831 59.3681 61.1331 58.7429 61.033C57.1925 60.8329 56.1923 61.3081 55.7672 62.859C55.6921 63.1841 55.4671 63.4843 55.317 63.7844C54.2418 65.9356 54.2418 65.9356 55.8672 67.7615C56.8424 68.8621 56.8674 69.1372 56.1172 70.3879C52.5413 76.1909 48.9654 81.9689 45.3895 87.7469C45.1894 88.0471 45.0144 88.3722 44.7643 88.7725C54.2418 88.7725 63.6192 88.7725 73.1217 88.7725ZM10.9055 62.6338C10.9055 62.6338 10.7304 62.6839 10.5804 62.7839C5.97919 65.4353 3.20347 69.3624 2.9534 74.6901C2.72834 79.2425 2.87838 83.8199 2.87838 88.3722C2.87838 88.4973 2.92839 88.5974 2.9534 88.7474C12.3308 88.7474 21.6833 88.7474 31.1357 88.7474C30.0104 86.9215 28.9352 85.1956 27.8849 83.4697C25.1342 79.0424 22.4085 74.5901 19.6578 70.1628C19.1326 69.3123 19.1326 68.612 19.8578 67.9116C20.3329 67.4363 20.8331 66.9361 21.2082 66.3608C21.3832 66.0856 21.4582 65.6104 21.3332 65.3102C20.9581 64.3848 20.3579 63.5593 20.0579 62.6088C19.6077 61.2081 18.7325 60.8579 17.3321 60.958C16.1568 61.033 15.2316 61.3081 14.5064 62.2586C12.7059 64.6349 12.1558 67.3613 12.1558 70.2878C12.931 70.3379 13.6062 70.3379 14.2814 70.4629C18.5075 71.2884 21.4332 75.6906 20.608 79.9178C20.433 80.7933 19.8578 81.0434 18.4324 80.8683C17.1321 80.7183 16.4819 80.293 16.632 79.4426C16.707 79.0174 17.1071 78.6422 17.4322 78.292C17.5572 78.1669 17.8323 78.1669 18.0323 78.1419C18.0323 75.9658 16.5069 73.8897 14.4814 73.1893C12.6309 72.564 10.6304 73.1643 9.35507 74.7151C7.9547 76.441 7.75465 78.8173 8.92996 80.6933C9.05499 80.6682 9.20503 80.6182 9.35507 80.5682C10.2553 80.3431 10.8805 80.6432 11.1055 81.3436C11.3306 82.069 11.0055 82.6693 10.1803 83.0195C9.75517 83.1946 9.30506 83.3446 8.87994 83.5197C8.17976 83.8199 7.65463 83.5697 7.22951 83.0195C4.92892 80.0179 4.92891 75.4155 7.65462 72.8642C9.15501 71.4634 9.65515 70.0627 9.78018 68.1117C9.83019 66.2857 10.4804 64.4348 10.9055 62.6338ZM22.2084 23.2133C22.2334 23.1133 22.2334 23.0382 22.2584 22.9382C22.8836 18.5609 24.7341 14.909 28.36 12.2826C29.4853 11.4822 29.8604 11.5072 30.9107 12.4077C34.7367 15.5843 39.0878 16.96 44.0391 16.4598C44.4142 16.4348 44.7893 16.4348 45.1644 16.5098C47.7651 16.91 49.7156 18.3108 51.1159 20.5119C51.6661 21.3623 52.0912 22.2878 52.7164 23.4634C53.0665 21.5124 53.4916 19.8115 53.6666 18.0606C54.0917 13.7084 53.0414 9.85635 49.5155 6.97985C47.1649 5.05385 44.4142 3.95327 41.4634 3.45301C37.5624 2.77766 34.0865 3.50304 31.3858 6.72972C31.0857 7.0799 30.4106 7.25499 29.8854 7.28001C26.3095 7.43008 23.4337 8.73076 21.7583 12.0575C19.8578 15.7844 20.758 19.5114 22.2084 23.2133ZM34.6367 88.8225C36.6122 88.8225 38.4627 88.7975 40.2881 88.8475C41.0383 88.8725 41.2884 88.6224 41.3884 87.872C42.0136 83.4447 42.7138 79.0424 43.3639 74.6151C43.739 72.0888 44.1141 69.5625 44.4892 67.0862C40.0881 67.0862 35.7619 67.0862 31.3358 67.0862C32.4361 74.3149 33.5364 81.5187 34.6367 88.8225ZM31.6609 49.9022C30.9857 51.8532 30.3355 53.7292 29.7104 55.6302C29.6354 55.8553 29.6854 56.1305 29.7354 56.3556C30.0855 58.7068 30.4606 61.033 30.7606 63.4092C30.8607 64.1346 31.1607 64.3597 31.8109 64.3597C35.862 64.3597 39.913 64.3597 43.9891 64.3597C44.7143 64.3597 45.0144 64.0346 45.0894 63.3342C45.3644 61.2081 45.6895 59.057 46.0396 56.9559C46.1897 56.1304 46.1146 55.4051 45.7145 54.6297C45.3144 53.8543 45.1394 52.9788 44.8893 52.1534C44.6893 51.428 44.5392 50.6776 44.3642 49.8772C40.0631 51.7282 35.812 51.7282 31.6609 49.9022ZM21.0581 58.9069C21.8583 60.5077 22.6335 62.0335 23.3587 63.5843C24.8841 66.711 25.0592 65.9856 22.7085 68.612C22.2584 69.1122 22.2084 69.4624 22.5835 70.0377C25.2842 74.3149 27.9099 78.6422 30.5856 82.9444C30.7606 83.2196 30.9357 83.4447 31.1107 83.7198C31.1607 83.6948 31.1858 83.6698 31.2358 83.6448C29.9104 74.8152 28.5601 65.9856 27.2097 57.0809C25.1092 57.6813 23.1337 58.2816 21.0581 58.9069ZM44.6643 83.4197C44.7393 83.4447 44.8143 83.4697 44.8893 83.4947C45.0644 83.2196 45.2644 82.9444 45.4395 82.6693C47.7151 78.9674 50.0157 75.2904 52.2913 71.5885C52.7414 70.8381 53.5666 70.0627 53.5166 69.3373C53.4666 68.637 52.5413 67.9866 51.9912 67.3113C51.9412 67.2613 51.9162 67.2112 51.8661 67.1612C51.316 66.5859 51.266 65.9856 51.6161 65.2852C52.4913 63.5593 53.3415 61.8334 54.2168 60.0825C54.3918 59.7073 54.5668 59.3071 54.7669 58.8819C52.6914 58.2566 50.7158 57.6562 48.6653 57.0309C47.315 65.9105 45.9896 74.6651 44.6643 83.4197ZM64.1193 78.292C65.5447 78.317 66.695 77.1914 66.695 75.7657C66.695 74.39 65.5697 73.2894 64.1944 73.2394C62.794 73.2143 61.6187 74.365 61.6187 75.7657C61.6437 77.1664 62.744 78.267 64.1193 78.292Z" fill="#545454"/>
<path d="M66.695 75.7657C66.695 77.1914 65.5447 78.317 64.1193 78.292C62.744 78.267 61.6437 77.1664 61.6187 75.7657C61.6187 74.365 62.794 73.2143 64.1944 73.2394C65.5697 73.2894 66.695 74.39 66.695 75.7657Z" fill="#66CCFF"/>
</svg>
