<svg width="32" height="32" viewBox="0 0 32 32" fill="none" xmlns="http://www.w3.org/2000/svg">
<path d="M18.0003 29.3C15.5114 29.3 13.4448 28.4277 11.8003 26.6833C10.1559 24.9388 9.33366 22.8555 9.33366 20.4333V19.2666C7.44477 19.0222 5.86144 18.1809 4.58366 16.7429C3.30588 15.3049 2.66699 13.6128 2.66699 11.6666V3.99996H6.66699V2.66663H8.66699V7.33329H6.66699V5.99996H4.66699V11.6559C4.66699 13.2408 5.21699 14.5833 6.31699 15.6833C7.41699 16.7833 8.75588 17.3333 10.3337 17.3333C11.9114 17.3333 13.2503 16.7833 14.3503 15.6833C15.4503 14.5833 16.0003 13.2408 16.0003 11.6559V5.99996H14.0003V7.33329H12.0003V2.66663H14.0003V3.99996H18.0003V11.6666C18.0003 13.6128 17.3614 15.3049 16.0837 16.7429C14.8059 18.1809 13.2225 19.0222 11.3337 19.2666V20.4333C11.3337 22.3222 11.9614 23.9388 13.217 25.2833C14.4725 26.6277 16.067 27.3 18.0003 27.3C19.8003 27.3 21.3614 26.6316 22.6837 25.2949C24.0059 23.9582 24.667 22.335 24.667 20.4255V17.8666C23.8892 17.6444 23.2503 17.2111 22.7503 16.5666C22.2503 15.9222 22.0003 15.1777 22.0003 14.3333C22.0003 13.3148 22.3572 12.449 23.0709 11.7361C23.7846 11.0231 24.6513 10.6666 25.6709 10.6666C26.6905 10.6666 27.5559 11.0231 28.267 11.7361C28.9781 12.449 29.3337 13.3148 29.3337 14.3333C29.3337 15.1777 29.0837 15.9222 28.5837 16.5666C28.0837 17.2111 27.4448 17.6444 26.667 17.8666V20.4333C26.667 22.9 25.817 24.9944 24.117 26.7166C22.417 28.4388 20.3781 29.3 18.0003 29.3ZM25.6612 16C26.1317 16 26.5281 15.8408 26.8503 15.5225C27.1725 15.2041 27.3337 14.8097 27.3337 14.3391C27.3337 13.8686 27.1745 13.4722 26.8562 13.15C26.5378 12.8277 26.1434 12.6666 25.6728 12.6666C25.2023 12.6666 24.8059 12.8258 24.4837 13.1441C24.1614 13.4624 24.0003 13.8569 24.0003 14.3275C24.0003 14.798 24.1595 15.1944 24.4778 15.5166C24.7961 15.8388 25.1906 16 25.6612 16Z" fill="#AAAAAA"/>
</svg>
