<svg width="16" height="16" viewBox="0 0 16 16" fill="none" xmlns="http://www.w3.org/2000/svg">
<path d="M12.7607 8.62664C12.7874 8.42664 12.8007 8.21998 12.8007 7.99998C12.8007 7.78664 12.7874 7.57331 12.7541 7.37331L14.1074 6.31997C14.2274 6.22664 14.2607 6.04664 14.1874 5.91331L12.9074 3.69998C12.8274 3.55331 12.6607 3.50664 12.5141 3.55331L10.9207 4.19331C10.5874 3.93998 10.2341 3.72664 9.84072 3.56664L9.60072 1.87331C9.57406 1.71331 9.44072 1.59998 9.28072 1.59998H6.72072C6.56072 1.59998 6.43406 1.71331 6.40739 1.87331L6.16739 3.56664C5.77406 3.72664 5.41406 3.94664 5.08739 4.19331L3.49406 3.55331C3.34739 3.49998 3.18072 3.55331 3.10072 3.69998L1.82739 5.91331C1.74739 6.05331 1.77406 6.22664 1.90739 6.31997L3.26072 7.37331C3.22739 7.57331 3.20072 7.79331 3.20072 7.99998C3.20072 8.20664 3.21406 8.42664 3.24739 8.62664L1.89406 9.67998C1.77406 9.77331 1.74072 9.95331 1.81406 10.0866L3.09406 12.3C3.17406 12.4466 3.34072 12.4933 3.48739 12.4466L5.08072 11.8066C5.41406 12.06 5.76739 12.2733 6.16072 12.4333L6.40072 14.1266C6.43406 14.2866 6.56072 14.4 6.72072 14.4H9.28072C9.44072 14.4 9.57406 14.2866 9.59406 14.1266L9.83406 12.4333C10.2274 12.2733 10.5874 12.06 10.9141 11.8066L12.5074 12.4466C12.6541 12.5 12.8207 12.4466 12.9007 12.3L14.1807 10.0866C14.2607 9.93997 14.2274 9.77331 14.1007 9.67998L12.7607 8.62664ZM8.00072 10.4C6.68072 10.4 5.60072 9.31998 5.60072 7.99998C5.60072 6.67998 6.68072 5.59998 8.00072 5.59998C9.32072 5.59998 10.4007 6.67998 10.4007 7.99998C10.4007 9.31998 9.32072 10.4 8.00072 10.4Z" fill="#545454"/>
</svg>
