<svg width="168" height="50" viewBox="0 0 168 50" fill="none" xmlns="http://www.w3.org/2000/svg">
<path d="M161.778 49.4667H6.22222C2.80156 49.4667 0 46.7352 0 43.4V7.00001C0 3.66486 2.80156 0.933345 6.22222 0.933345H161.778C165.198 0.933345 168 3.66486 168 7.00001V43.4C168 46.7352 165.198 49.4667 161.778 49.4667Z" fill="#122738"/>
<path d="M161.778 1.90553C164.659 1.90553 167.003 4.19114 167.003 7.00001V43.4C167.003 46.2089 164.659 48.4945 161.778 48.4945H6.22222C3.34133 48.4945 0.997111 46.2089 0.997111 43.4V7.00001C0.997111 4.19114 3.34133 1.90553 6.22222 1.90553H161.778ZM161.778 0.933345H6.22222C2.80156 0.933345 0 3.66486 0 7.00001V43.4C0 46.7352 2.80156 49.4667 6.22222 49.4667H161.778C165.198 49.4667 168 46.7352 168 43.4V7.00001C168 3.66486 165.198 0.933345 161.778 0.933345Z" fill="white"/>
<path d="M12.0525 10.0803C11.6869 10.4534 11.4754 11.0343 11.4754 11.7866V38.6194C11.4754 39.3717 11.6869 39.9526 12.0525 40.3257L12.1427 40.4076L27.5645 25.3774V25.0225L12.1427 9.99236L12.0525 10.0803Z" fill="white"/>
<path d="M34.566 30.39L29.4311 25.3774V25.0225L34.5722 20.0099L34.6873 20.0752L40.7758 23.4528C42.5133 24.4113 42.5133 25.9886 40.7758 26.9532L34.6873 30.3248L34.566 30.39Z" fill="white"/>
<path d="M33.754 31.2581L28.4978 26.1333L12.9858 41.259C13.5629 41.8505 14.504 41.9218 15.5743 41.3303L33.754 31.2581Z" fill="white"/>
<path d="M33.754 19.1418L15.5743 9.06961C14.504 8.48417 13.5629 8.55546 12.9858 9.14696L28.4978 24.2666L33.754 19.1418Z" fill="white"/>
<path d="M59.0084 13.3625C59.0084 14.3756 58.6973 15.187 58.0844 15.7922C57.3798 16.5096 56.462 16.8705 55.3373 16.8705C54.2624 16.8705 53.3447 16.5035 52.5918 15.7801C51.8373 15.046 51.4609 14.1451 51.4609 13.0667C51.4609 11.9884 51.8373 11.0875 52.5918 10.3595C53.3447 9.62997 54.2624 9.26294 55.3373 9.26294C55.8724 9.26294 56.3827 9.37062 56.8695 9.57082C57.3549 9.77254 57.75 10.0455 58.0362 10.3822L57.386 11.0223C56.8867 10.4475 56.2069 10.1638 55.3373 10.1638C54.5533 10.1638 53.8735 10.4308 53.2964 10.9692C52.7255 11.5091 52.4393 12.2083 52.4393 13.0667C52.4393 13.9252 52.7255 14.6304 53.2964 15.1704C53.8735 15.7027 54.5533 15.9757 55.3373 15.9757C56.1695 15.9757 56.8695 15.7027 57.4218 15.1643C57.7858 14.8079 57.9927 14.3165 58.0471 13.6886H55.3373V12.8119H58.9524C58.996 13.0015 59.0084 13.185 59.0084 13.3625Z" fill="white" stroke="white" stroke-width="0.0497778" stroke-miterlimit="10"/>
<path d="M64.7438 10.323H61.348V12.6283H64.4093V13.505H61.348V15.8103H64.7438V16.7036H60.3867V9.42969H64.7438V10.323Z" fill="white" stroke="white" stroke-width="0.0497778" stroke-miterlimit="10"/>
<path d="M68.7913 16.7036H67.83V10.323H65.7471V9.42969H70.8757V10.323H68.7913V16.7036Z" fill="white" stroke="white" stroke-width="0.0497778" stroke-miterlimit="10"/>
<path d="M74.5873 16.7036V9.42969H75.5471V16.7036H74.5873Z" fill="white" stroke="white" stroke-width="0.0497778" stroke-miterlimit="10"/>
<path d="M79.8015 16.7036H78.848V10.323H76.7573V9.42969H81.8922V10.323H79.8015V16.7036Z" fill="white" stroke="white" stroke-width="0.0497778" stroke-miterlimit="10"/>
<path d="M91.602 15.7679C90.8662 16.5035 89.9546 16.8705 88.8673 16.8705C87.7737 16.8705 86.8622 16.5035 86.1264 15.7679C85.3922 15.0339 85.0266 14.133 85.0266 13.0667C85.0266 12.0005 85.3922 11.0996 86.1264 10.3656C86.8622 9.62997 87.7737 9.26294 88.8673 9.26294C89.9484 9.26294 90.86 9.62997 91.5958 10.3716C92.3362 11.1118 92.7018 12.0066 92.7018 13.0667C92.7018 14.133 92.3362 15.0339 91.602 15.7679ZM86.8373 15.1582C87.3911 15.7027 88.0646 15.9757 88.8673 15.9757C89.6637 15.9757 90.3435 15.7027 90.8911 15.1582C91.4433 14.6137 91.7233 13.9146 91.7233 13.0667C91.7233 12.2189 91.4433 11.5197 90.8911 10.9753C90.3435 10.4308 89.6637 10.1578 88.8673 10.1578C88.0646 10.1578 87.3911 10.4308 86.8373 10.9753C86.2851 11.5197 86.0051 12.2189 86.0051 13.0667C86.0051 13.9146 86.2851 14.6137 86.8373 15.1582Z" fill="white" stroke="white" stroke-width="0.0497778" stroke-miterlimit="10"/>
<path d="M94.0504 16.7036V9.42969H95.2171L98.8446 15.0869H98.8866L98.8446 13.6885V9.42969H99.8044V16.7036H98.8026L95.004 10.7674H94.962L95.004 12.1718V16.7036H94.0504Z" fill="white" stroke="white" stroke-width="0.0497778" stroke-miterlimit="10"/>
<path d="M84.7902 27.3263C81.8673 27.3263 79.4796 29.4951 79.4796 32.4875C79.4796 35.4556 81.8673 37.6472 84.7902 37.6472C87.7193 37.6472 90.1071 35.4556 90.1071 32.4875C90.1071 29.4951 87.7193 27.3263 84.7902 27.3263ZM84.7902 35.6149C83.1865 35.6149 81.8067 34.3242 81.8067 32.4875C81.8067 30.6266 83.1865 29.3586 84.7902 29.3586C86.394 29.3586 87.78 30.6266 87.78 32.4875C87.78 34.3242 86.394 35.6149 84.7902 35.6149ZM73.2029 27.3263C70.2738 27.3263 67.8922 29.4951 67.8922 32.4875C67.8922 35.4556 70.2738 37.6472 73.2029 37.6472C76.1305 37.6472 78.5136 35.4556 78.5136 32.4875C78.5136 29.4951 76.1305 27.3263 73.2029 27.3263ZM73.2029 35.6149C71.5976 35.6149 70.2131 34.3242 70.2131 32.4875C70.2131 30.6266 71.5976 29.3586 73.2029 29.3586C74.8067 29.3586 76.1865 30.6266 76.1865 32.4875C76.1865 34.3242 74.8067 35.6149 73.2029 35.6149ZM59.4145 28.9082V31.1013H64.7858C64.6287 32.3268 64.2087 33.2277 63.5647 33.8556C62.7807 34.6139 61.5596 35.4556 59.4145 35.4556C56.1089 35.4556 53.5205 32.8546 53.5205 29.6316C53.5205 26.4087 56.1089 23.8076 59.4145 23.8076C61.2018 23.8076 62.5022 24.4886 63.462 25.3713L65.0471 23.8258C63.7047 22.5761 61.9189 21.6161 59.4145 21.6161C54.8816 21.6161 51.072 25.2121 51.072 29.6316C51.072 34.0512 54.8816 37.6472 59.4145 37.6472C61.8645 37.6472 63.7047 36.8646 65.1513 35.3965C66.6338 33.9511 67.0958 31.9188 67.0958 30.2777C67.0958 29.7681 67.0522 29.2995 66.9745 28.9082H59.4145ZM115.797 30.6084C115.36 29.4542 114.011 27.3263 111.264 27.3263C108.542 27.3263 106.276 29.4178 106.276 32.4875C106.276 35.3783 108.519 37.6472 111.526 37.6472C113.957 37.6472 115.36 36.2018 115.937 35.3601L114.133 34.1877C113.531 35.0461 112.711 35.6149 111.526 35.6149C110.348 35.6149 109.503 35.0886 108.962 34.0512L116.041 31.1953L115.797 30.6084ZM108.579 32.3268C108.519 30.3369 110.164 29.3177 111.344 29.3177C112.268 29.3177 113.052 29.7681 113.313 30.4127L108.579 32.3268ZM102.825 37.3333H105.152V22.1666H102.825V37.3333ZM99.0142 28.4759H98.9364C98.4138 27.8723 97.4167 27.3263 96.1536 27.3263C93.5029 27.3263 91.0793 29.5952 91.0793 32.5042C91.0793 35.3965 93.5029 37.6472 96.1536 37.6472C97.4167 37.6472 98.4138 37.0967 98.9364 36.4748H99.0142V37.215C99.0142 39.1882 97.9331 40.2483 96.1893 40.2483C94.7676 40.2483 93.8856 39.2473 93.5216 38.4056L91.4978 39.2291C92.0811 40.5971 93.6258 42.2806 96.1893 42.2806C98.9178 42.2806 101.22 40.7154 101.22 36.9071V27.6403H99.0142V28.4759ZM96.3527 35.6149C94.7489 35.6149 93.4064 34.306 93.4064 32.5042C93.4064 30.6857 94.7489 29.3586 96.3527 29.3586C97.9331 29.3586 99.1791 30.6857 99.1791 32.5042C99.1791 34.306 97.9331 35.6149 96.3527 35.6149ZM126.692 22.1666H121.126V37.3333H123.447V31.5866H126.692C129.27 31.5866 131.798 29.7681 131.798 26.8759C131.798 23.9851 129.264 22.1666 126.692 22.1666ZM126.753 29.4769H123.447V24.2763H126.753C128.486 24.2763 129.475 25.6792 129.475 26.8759C129.475 28.0498 128.486 29.4769 126.753 29.4769ZM141.1 27.2975C139.423 27.2975 137.679 28.0194 136.962 29.6195L139.022 30.4613C139.465 29.6195 140.28 29.3465 141.142 29.3465C142.346 29.3465 143.567 30.0518 143.586 31.2969V31.4562C143.166 31.2196 142.266 30.8692 141.16 30.8692C138.942 30.8692 136.682 32.0598 136.682 34.2817C136.682 36.3141 138.499 37.623 140.541 37.623C142.103 37.623 142.965 36.9359 143.506 36.1366H143.586V37.309H145.827V31.4911C145.827 28.802 143.768 27.2975 141.1 27.2975ZM140.82 35.6088C140.061 35.6088 139.003 35.2418 139.003 34.3242C139.003 33.1503 140.322 32.6999 141.464 32.6999C142.486 32.6999 142.965 32.9198 143.586 33.2095C143.404 34.6139 142.164 35.6088 140.82 35.6088ZM153.994 27.6296L151.326 34.2044H151.247L148.489 27.6296H145.986L150.13 36.8176L147.765 41.9303H150.19L156.576 27.6296H153.994ZM133.073 37.3333H135.4V22.1666H133.073V37.3333Z" fill="white"/>
</svg>
