<svg width="27" height="28" viewBox="0 0 27 28" fill="none" xmlns="http://www.w3.org/2000/svg">
<path d="M12.167 18H14.8337V20.6667H12.167V18ZM12.167 7.33332H14.8337V15.3333H12.167V7.33332ZM13.487 0.666656C6.12699 0.666656 0.166992 6.63999 0.166992 14C0.166992 21.36 6.12699 27.3333 13.487 27.3333C20.8603 27.3333 26.8337 21.36 26.8337 14C26.8337 6.63999 20.8603 0.666656 13.487 0.666656ZM13.5003 24.6667C7.60699 24.6667 2.83366 19.8933 2.83366 14C2.83366 8.10666 7.60699 3.33332 13.5003 3.33332C19.3937 3.33332 24.167 8.10666 24.167 14C24.167 19.8933 19.3937 24.6667 13.5003 24.6667Z" fill="#DC3545"/>
</svg>
