<svg width="96" height="96" viewBox="0 0 96 96" fill="none" xmlns="http://www.w3.org/2000/svg">
<g filter="url(#filter0_d_455_115576)">
<circle cx="48" cy="44" r="16" fill="#DC3545"/>
<g clip-path="url(#clip0_455_115576)">
<rect width="16" height="16" transform="translate(40 36)" fill="#DC3545"/>
<path d="M45.9987 46.6666H47.332V41.3333H45.9987V46.6666ZM47.9987 37.3333C44.3187 37.3333 41.332 40.32 41.332 44C41.332 47.68 44.3187 50.6666 47.9987 50.6666C51.6787 50.6666 54.6654 47.68 54.6654 44C54.6654 40.32 51.6787 37.3333 47.9987 37.3333ZM47.9987 49.3333C45.0587 49.3333 42.6654 46.94 42.6654 44C42.6654 41.06 45.0587 38.6666 47.9987 38.6666C50.9387 38.6666 53.332 41.06 53.332 44C53.332 46.94 50.9387 49.3333 47.9987 49.3333ZM48.6654 46.6666H49.9987V41.3333H48.6654V46.6666Z" fill="white"/>
</g>
</g>
<defs>
<filter id="filter0_d_455_115576" x="0" y="0" width="96" height="96" filterUnits="userSpaceOnUse" color-interpolation-filters="sRGB">
<feFlood flood-opacity="0" result="BackgroundImageFix"/>
<feColorMatrix in="SourceAlpha" type="matrix" values="0 0 0 0 0 0 0 0 0 0 0 0 0 0 0 0 0 0 127 0" result="hardAlpha"/>
<feOffset dy="4"/>
<feGaussianBlur stdDeviation="16"/>
<feComposite in2="hardAlpha" operator="out"/>
<feColorMatrix type="matrix" values="0 0 0 0 0 0 0 0 0 0 0 0 0 0 0 0 0 0 0.05 0"/>
<feBlend mode="normal" in2="BackgroundImageFix" result="effect1_dropShadow_455_115576"/>
<feBlend mode="normal" in="SourceGraphic" in2="effect1_dropShadow_455_115576" result="shape"/>
</filter>
<clipPath id="clip0_455_115576">
<rect width="16" height="16" fill="white" transform="translate(40 36)"/>
</clipPath>
</defs>
</svg>
