<svg width="21" height="20" viewBox="0 0 21 20" fill="none" xmlns="http://www.w3.org/2000/svg">
<path d="M4.68643 6.5116V19.8007H0.280182V6.5116H4.68643ZM4.96768 2.41003C4.98331 3.06628 4.76456 3.61316 4.31143 4.05066C3.84268 4.48816 3.23331 4.70691 2.48331 4.70691H2.45987C1.72549 4.70691 1.13956 4.48816 0.702057 4.05066C0.248932 3.61316 0.0223694 3.06628 0.0223694 2.41003C0.0223694 1.75378 0.248932 1.20691 0.702057 0.769409C1.17081 0.347534 1.77237 0.136597 2.50674 0.136597C3.25674 0.136597 3.85049 0.347534 4.28799 0.769409C4.74112 1.20691 4.96768 1.75378 4.96768 2.41003ZM20.6005 12.1835V19.8007H16.1942V12.6991C16.1942 11.7616 16.0146 11.0272 15.6552 10.496C15.2802 9.96472 14.7099 9.6991 13.9442 9.6991C13.3817 9.6991 12.913 9.84753 12.538 10.1444C12.163 10.4569 11.8817 10.8397 11.6942 11.2928C11.5849 11.5585 11.5302 11.9257 11.5302 12.3944V19.8007H7.12393C7.15518 16.2382 7.17081 13.3475 7.17081 11.1288C7.17081 8.91003 7.16299 7.58972 7.14737 7.16785L7.12393 6.5116H11.5302V8.45691H11.5067C11.6942 8.16003 11.8817 7.91003 12.0692 7.70691C12.2567 7.48816 12.5067 7.25378 12.8192 7.00378C13.1317 6.75378 13.5224 6.55847 13.9911 6.41785C14.4442 6.27722 14.9521 6.20691 15.5146 6.20691C17.0458 6.20691 18.2724 6.71472 19.1942 7.73035C20.1317 8.74597 20.6005 10.2303 20.6005 12.1835Z" fill="white"/>
</svg>
