<svg width="16" height="17" viewBox="0 0 16 17" fill="none" xmlns="http://www.w3.org/2000/svg">
<path d="M8.00001 9.94667C6.58001 9.94667 5.42001 8.79333 5.42001 7.36667C5.42001 5.94 6.58001 4.79333 8.00001 4.79333C9.42001 4.79333 10.58 5.94667 10.58 7.37334C10.58 8.8 9.42001 9.94667 8.00001 9.94667ZM8.00001 5.79333C7.13334 5.79333 6.42001 6.5 6.42001 7.37334C6.42001 8.24667 7.12667 8.95333 8.00001 8.95333C8.87334 8.95333 9.58001 8.24667 9.58001 7.37334C9.58001 6.5 8.86667 5.79333 8.00001 5.79333Z" fill="white"/>
<path d="M8.00003 15.6734C7.01337 15.6734 6.02003 15.3 5.2467 14.56C3.28003 12.6667 1.1067 9.64671 1.9267 6.05337C2.6667 2.79337 5.51337 1.33337 8.00003 1.33337C8.00003 1.33337 8.00003 1.33337 8.0067 1.33337C10.4934 1.33337 13.34 2.79337 14.08 6.06004C14.8934 9.65337 12.72 12.6667 10.7534 14.56C9.98003 15.3 8.9867 15.6734 8.00003 15.6734ZM8.00003 2.33337C6.06003 2.33337 3.5667 3.36671 2.9067 6.27337C2.1867 9.41337 4.16003 12.12 5.9467 13.8334C7.10003 14.9467 8.9067 14.9467 10.06 13.8334C11.84 12.12 13.8134 9.41337 13.1067 6.27337C12.44 3.36671 9.94003 2.33337 8.00003 2.33337Z" fill="white"/>
</svg>
