<?xml version="1.0" encoding="UTF-8"?><svg id="c" xmlns="http://www.w3.org/2000/svg" viewBox="0 0 2300 513.75"><defs><style>.d{fill:#4d4d4d;}.d,.e{stroke-width:0px;}.e{fill:#6cf;}</style></defs><path class="d" d="m776.61,218.49c39.18,0,66.15,18.54,80.47,37.5v-33.71h48.45v232.15h-48.45v-34.55c-14.75,19.8-42.55,38.34-81.32,38.34-60.25,0-108.7-49.29-108.7-120.92s48.45-118.81,109.54-118.81Zm10.11,41.71c-35.81,0-70.36,26.96-70.36,77.1s34.55,79.21,70.36,79.21,70.36-28.23,70.36-78.37-34.13-77.95-70.36-77.95Z"/><path class="d" d="m976.31,261.47h-27.39v-39.18h27.39v-57.72h48.45v57.72h56.46v39.18h-56.46v128.5c0,17.27,6.74,24.44,26.96,24.44h29.49v40.03h-37.92c-41.29,0-66.99-17.27-66.99-64.46v-128.5Z"/><path class="d" d="m1225.31,458.23c-66.57,0-115.87-47.19-115.87-120.08s47.19-119.66,115.87-119.66,112.92,45.92,112.92,114.18c0,8.01-.42,15.59-1.69,23.59h-177.38c3.37,38.34,30.76,61.51,66.15,61.51,29.49,0,45.92-14.33,54.77-32.44h51.82c-13.06,40.45-49.72,72.89-106.59,72.89Zm-65.73-140.72h128.5c-.84-35.81-29.07-58.56-64.88-58.56-32.44,0-58.56,21.91-63.62,58.56Z"/><path class="d" d="m1486.53,335.62h-53.09v118.81h-48.03V161.61h101.12c69.52,0,103.65,39.6,103.65,87.21,0,41.71-27.39,86.79-103.65,86.79Zm0-39.18c37.5,0,54.35-18.12,54.35-47.61s-16.85-48.03-54.35-48.03h-53.09v95.64h53.09Z"/><path class="d" d="m1636.09,142.65h48.03v311.78h-48.03V142.65Z"/><path class="d" d="m1957.56,454.44h-48.03v-27.81c-15.17,19.8-41.29,31.18-68.68,31.18-54.35,0-95.64-34.13-95.64-99.01v-136.51h47.61v129.35c0,42.55,23.17,64.46,58.14,64.46s58.56-21.91,58.56-64.46v-129.35h48.03v232.15Z"/><path class="d" d="m2105.01,458.23c-55.61,0-94.8-32.86-96.9-75h49.72c1.69,18.96,19.8,34.55,46.35,34.55s42.55-11.8,42.55-27.81c0-45.5-134.82-19.38-134.82-104.49,0-37.08,34.55-66.99,89.32-66.99s87.21,28.23,89.74,74.57h-48.03c-1.69-20.22-17.27-34.13-43.4-34.13s-39.18,10.53-39.18,26.12c0,46.77,131.03,20.64,133.56,104.49,0,39.18-34.13,68.68-88.9,68.68Z"/><path class="e" d="m186.92,272.89c.32,1.03.69,2.04,1.06,3.07.21.57.42,1.16.65,1.73.34.93.72,1.84,1.12,2.76.32.73.66,1.45,1.01,2.17.37.79.73,1.59,1.14,2.37.74,1.43,1.55,2.83,2.41,4.21.29.48.64.95.96,1.42.68,1.01,1.38,2.02,2.12,2.98.38.53.8,1.01,1.21,1.52.79.95,1.61,1.88,2.47,2.78.39.43.78.84,1.19,1.24,1.29,1.27,2.64,2.51,4.1,3.65,1.14.89,2.36,1.74,3.63,2.56.25.17.49.32.74.49,1.31.82,2.65,1.6,4.08,2.33.12.05.23.11.35.16,1.45.73,2.97,1.41,4.55,2.04.11.04.22.08.33.12,1.7.67,3.47,1.26,5.34,1.77.1.02.21.06.32.09,3.84,1.06,8.04,1.85,12.68,2.28.06,0,.11,0,.16,0,4.73.44,9.89.49,15.55.14-6.74-18.02-10.45-37.51-10.45-57.9,0-81.17,58.56-148.64,135.71-162.56v174.02c16.94-9.59,35.31-20.89,55.19-34.12V35.8c-8.41-.97-16.97-1.51-25.65-1.51-122.94,0-222.59,99.65-222.59,222.59,0,5.39.27,10.71.64,16.01h0Z"/><path class="e" d="m631.32,251.51l-.49-.48c-9.55,6.57-30.97,20.98-59.87,38.03-14.97,75.85-81.84,133.06-162.09,133.06-38.93,0-74.69-13.5-102.94-36.02-20.32.91-40.06-.51-58.61-5.25-2.57-.37-14.32-2.32-28.7-8.38,39.06,64.16,109.64,107,190.25,107,122.94,0,222.59-99.65,222.59-222.59,0-1.79-.1-3.57-.14-5.36"/><path class="e" d="m174.57,233.33s-24.31,239.56,362.81-64.18l-42.59-48.65,193.46-30.24-24.46,181.35-32.13-30.9s-237.02,169.97-382.8,132.28c0,0-116.52-15.11-74.28-139.66"/></svg>