<svg width="35" height="35" viewBox="0 0 23 22" fill="none" xmlns="http://www.w3.org/2000/svg">
<circle cx="11.6066" cy="11" r="10.9388" fill="#66CCFF"/>
<g clip-path="url(#clip0_300_96413)">
<path d="M13.5209 12.0939H13.0889L12.9357 11.9462C13.4717 11.3227 13.7944 10.5132 13.7944 9.63268C13.7944 7.66917 12.2028 6.07758 10.2393 6.07758C8.2758 6.07758 6.6842 7.66917 6.6842 9.63268C6.6842 11.5962 8.2758 13.1878 10.2393 13.1878C11.1199 13.1878 11.9293 12.8651 12.5529 12.3291L12.7005 12.4822V12.9143L15.4352 15.6435L16.2502 14.8286L13.5209 12.0939ZM10.2393 12.0939C8.87743 12.0939 7.77808 10.9946 7.77808 9.63268C7.77808 8.2708 8.87743 7.17145 10.2393 7.17145C11.6012 7.17145 12.7005 8.2708 12.7005 9.63268C12.7005 10.9946 11.6012 12.0939 10.2393 12.0939Z" fill="white"/>
</g>
<defs>
<clipPath id="clip0_300_96413">
<rect width="13.1265" height="13.1265" fill="white" transform="translate(5.04333 4.43677)"/>
</clipPath>
</defs>
</svg>
