<svg width="22" height="27" viewBox="0 0 22 27" fill="none" xmlns="http://www.w3.org/2000/svg">
<path d="M11 26.3333C12.4667 26.3333 13.6667 25.1333 13.6667 23.6667H8.33334C8.33334 25.1333 9.53334 26.3333 11 26.3333ZM19 18.3333V11.6667C19 7.57333 16.8267 4.14666 13 3.23999V2.33333C13 1.22666 12.1067 0.333328 11 0.333328C9.89334 0.333328 9.00001 1.22666 9.00001 2.33333V3.23999C5.18668 4.14666 3.00001 7.56 3.00001 11.6667V18.3333L0.333344 21V22.3333H21.6667V21L19 18.3333ZM16.3333 19.6667H5.66668V11.6667C5.66668 8.35999 7.68001 5.66666 11 5.66666C14.32 5.66666 16.3333 8.35999 16.3333 11.6667V19.6667Z" fill="#8D8D8D"/>
</svg>
