<svg width="32" height="32" viewBox="0 0 32 32" fill="none" xmlns="http://www.w3.org/2000/svg">
<g clip-path="url(#clip0_304_97472)">
<path d="M12.0003 16C14.5737 16 16.667 13.9067 16.667 11.3334C16.667 8.76002 14.5737 6.66669 12.0003 6.66669C9.42699 6.66669 7.33366 8.76002 7.33366 11.3334C7.33366 13.9067 9.42699 16 12.0003 16ZM12.0003 9.33335C13.107 9.33335 14.0003 10.2267 14.0003 11.3334C14.0003 12.44 13.107 13.3334 12.0003 13.3334C10.8937 13.3334 10.0003 12.44 10.0003 11.3334C10.0003 10.2267 10.8937 9.33335 12.0003 9.33335ZM12.067 22.6667H6.36033C7.68033 22 9.96033 21.3334 12.0003 21.3334C12.147 21.3334 12.307 21.3467 12.4537 21.3467C12.907 20.3734 13.6937 19.5734 14.6403 18.9334C13.667 18.76 12.747 18.6667 12.0003 18.6667C8.88033 18.6667 2.66699 20.2267 2.66699 23.3334V25.3334H12.0003V23.3334C12.0003 23.1067 12.027 22.88 12.067 22.6667ZM22.0003 19.3334C19.547 19.3334 14.667 20.68 14.667 23.3334V25.3334H29.3337V23.3334C29.3337 20.68 24.4537 19.3334 22.0003 19.3334ZM23.6137 16.9067C24.627 16.3334 25.3337 15.2534 25.3337 14C25.3337 12.16 23.8403 10.6667 22.0003 10.6667C20.1603 10.6667 18.667 12.16 18.667 14C18.667 15.2534 19.3737 16.3334 20.387 16.9067C20.867 17.1734 21.4137 17.3334 22.0003 17.3334C22.587 17.3334 23.1337 17.1734 23.6137 16.9067Z" fill="#AAAAAA"/>
</g>
<defs>
<clipPath id="clip0_304_97472">
<rect width="32" height="32" fill="white"/>
</clipPath>
</defs>
</svg>
