<svg width="64" height="90" viewBox="0 0 64 90" fill="none" xmlns="http://www.w3.org/2000/svg">
<path d="M23.4999 57.7C17.9999 57.2 13.0999 55.3 8.29994 52.6C7.59994 52.2 7.29994 51.7 7.29994 50.9C7.29994 43 7.19994 35.1 7.49994 27.2C7.69994 20.7 10.0999 14.9 15.1999 10.5C15.3999 10.3 15.4999 9.7 15.3999 9.4C14.7999 7.1 14.1999 4.8 13.5999 2.5C13.1999 1.1 13.6999 0.5 15.1999 0.5C26.3999 0.5 37.6999 0.5 48.8999 0.5C50.2999 0.5 50.7999 1.2 50.3999 2.5C49.7999 4.8 49.1999 7.1 48.5999 9.5C48.4999 9.8 48.5999 10.4 48.8999 10.6C53.6999 14.7 55.9999 20.1 56.4999 26.3C56.7999 30.2 56.6999 34.2 56.6999 38.2C56.6999 42.4 56.6999 46.6 56.6999 50.8C56.6999 51.8 56.3999 52.4 55.4999 52.9C50.7999 55.4 45.8999 57.3 40.4999 57.9C40.5999 58.7 41.1999 58.8 41.7999 58.8C45.3999 59 48.7999 59.7 51.9999 61.4C58.1999 64.8 61.6999 70.2 62.7999 77.1C63.3999 80.7 63.0999 84.4 63.1999 88.1C63.1999 89 62.5999 89.5 61.6999 89.5H61.5999C41.8999 89.5 22.1999 89.5 2.49994 89.5C1.29994 89.5 0.799935 89 0.799935 87.8C0.799935 84.4 0.699936 81 0.999936 77.7C1.79994 68.5 9.09993 60.8 18.0999 59.1C19.3999 58.9 20.7999 58.9 22.0999 58.7C22.5999 58.6 22.9999 58.4 23.4999 58.2C23.5999 58 23.4999 57.9 23.4999 57.7ZM16.1999 31.1C16.1999 33.7 15.9999 36.6 16.1999 39.3C16.8999 47.2 23.1999 53 31.2999 53.5C38.6999 54 45.6999 48.7 47.4999 41.3C48.2999 37.8 47.8999 34.3 47.8999 30.7C47.8999 30.5 47.5999 30.2 47.3999 30.2C43.9999 29.4 41.4999 27.3 39.4999 24.6C38.9999 24 38.4999 23.4 37.9999 22.7C34.8999 25.4 31.4999 27.3 27.5999 28.4C23.8999 29.5 20.0999 30.2 16.1999 31.1ZM29.0999 86.8C39.5999 86.8 50.0999 86.8 60.6999 86.8C60.6999 84.8 60.6999 82.8 60.6999 80.9C60.6999 71 53.9999 63.1 44.2999 61.6C43.8999 61.5 43.3999 61.7 43.0999 61.9C38.4999 66 33.9999 70.1 29.4999 74.2C29.1999 74.5 28.9999 75 28.9999 75.4C28.9999 78.9 28.9999 82.4 28.9999 85.9C29.0999 86.2 29.0999 86.4 29.0999 86.8ZM29.9999 70.3C26.7999 67.4 23.7999 64.6 20.6999 61.9C20.4999 61.7 20.0999 61.6 19.7999 61.7C12.4999 62.9 7.39994 67 4.59994 73.9C2.89994 78.1 3.49994 82.5 3.49994 86.9C3.49994 86.9 3.59994 87 3.59994 87.1C11.1999 87.1 18.6999 87.1 26.3999 87.1C26.3999 86.7 26.3999 86.4 26.3999 86C26.3999 82.3 26.3999 78.7 26.3999 75C26.3999 74.2 26.5999 73.5 27.2999 73C28.1999 72 29.0999 71.2 29.9999 70.3ZM47.5999 13.1C47.2999 14.3 46.8999 15.5 46.5999 16.6C46.1999 17.9 45.5999 18.3 44.2999 17.7C36.0999 14.4 27.8999 14.3 19.6999 17.7C18.3999 18.2 17.7999 17.9 17.3999 16.6C17.0999 15.4 16.7999 14.3 16.3999 13C11.8999 17.3 10.2999 22.5 9.99994 28.3C13.9999 28.3 17.7999 28 21.5999 27.3C27.3999 26.2 32.7999 24.2 37.0999 20C37.9999 19.2 38.6999 19.3 39.3999 20.3C40.7999 22 42.0999 23.7 43.5999 25.2C46.4999 28 50.0999 28.5 53.8999 28.4C53.9999 23.5 51.8999 16.7 47.5999 13.1ZM19.5999 15C27.8999 11.9 36.0999 11.9 44.2999 15C45.3999 11.1 46.3999 7.2 47.3999 3.3C36.9999 3.3 26.7999 3.3 16.3999 3.3C17.4999 7.2 18.5999 11.1 19.5999 15ZM37.7999 55.2C33.8999 56.4 30.0999 56.4 26.1999 55.2C26.1999 57.5 26.5999 59.8 23.8999 61C26.5999 63.5 29.2999 65.9 31.9999 68.3C34.7999 65.8 37.3999 63.4 40.1999 61C37.5999 59.8 37.7999 57.5 37.7999 55.2ZM13.4999 31.1C12.1999 31.1 11.1999 31.1 10.0999 31.1C10.0999 31.4 9.99994 31.5 9.99994 31.7C9.99994 37.8 9.99994 43.9 9.99994 50C9.99994 50.3 10.2999 50.8 10.5999 51C13.3999 52.6 16.3999 53.8 19.4999 54.6C20.7999 54.9 22.1999 55.1 23.4999 55.3C23.7999 54.4 23.4999 54.1 22.8999 53.8C19.8999 52.1 17.5999 49.8 15.8999 46.8C14.1999 43.9 13.4999 40.7 13.4999 37.4C13.4999 35.2 13.4999 33.1 13.4999 31.1ZM50.5999 30.9C50.5999 31.3 50.5999 31.7 50.5999 32C50.5999 34 50.6999 35.9 50.5999 37.9C50.3999 44.9 47.1999 50.2 41.1999 53.7C40.5999 54.1 40.2999 54.4 40.5999 55.1C40.8999 55.1 41.0999 55.1 41.2999 55C45.5999 54.4 49.4999 52.9 53.2999 51C53.8999 50.7 54.0999 50.4 54.0999 49.7C54.0999 43.8 54.0999 37.9 54.0999 32C54.0999 31.7 54.0999 31.4 54.0999 31C52.8999 31 51.7999 30.9 50.5999 30.9Z" fill="#545454"/>
</svg>
