<svg width="16" height="12" viewBox="0 0 16 12" fill="none" xmlns="http://www.w3.org/2000/svg">
<path d="M9.33335 6.66666C8.7778 6.66666 8.30558 6.47222 7.91669 6.08333C7.5278 5.69444 7.33335 5.22222 7.33335 4.66666C7.33335 4.11111 7.5278 3.63889 7.91669 3.25C8.30558 2.86111 8.7778 2.66666 9.33335 2.66666C9.88891 2.66666 10.3611 2.86111 10.75 3.25C11.1389 3.63889 11.3334 4.11111 11.3334 4.66666C11.3334 5.22222 11.1389 5.69444 10.75 6.08333C10.3611 6.47222 9.88891 6.66666 9.33335 6.66666ZM4.66669 8.66666C4.30002 8.66666 3.98613 8.53611 3.72502 8.275C3.46391 8.01389 3.33335 7.7 3.33335 7.33333V2C3.33335 1.63333 3.46391 1.31944 3.72502 1.05833C3.98613 0.79722 4.30002 0.666664 4.66669 0.666664H14C14.3667 0.666664 14.6806 0.79722 14.9417 1.05833C15.2028 1.31944 15.3334 1.63333 15.3334 2V7.33333C15.3334 7.7 15.2028 8.01389 14.9417 8.275C14.6806 8.53611 14.3667 8.66666 14 8.66666H4.66669ZM6.00002 7.33333H12.6667C12.6667 6.96666 12.7972 6.65278 13.0584 6.39166C13.3195 6.13055 13.6334 6 14 6V3.33333C13.6334 3.33333 13.3195 3.20278 13.0584 2.94166C12.7972 2.68055 12.6667 2.36666 12.6667 2H6.00002C6.00002 2.36666 5.86946 2.68055 5.60835 2.94166C5.34724 3.20278 5.03335 3.33333 4.66669 3.33333V6C5.03335 6 5.34724 6.13055 5.60835 6.39166C5.86946 6.65278 6.00002 6.96666 6.00002 7.33333ZM2.00002 11.3333C1.63335 11.3333 1.31946 11.2028 1.05835 10.9417C0.797243 10.6806 0.666687 10.3667 0.666687 10V3.33333C0.666687 3.14444 0.730576 2.98611 0.858354 2.85833C0.986131 2.73055 1.14446 2.66666 1.33335 2.66666C1.52224 2.66666 1.68058 2.73055 1.80835 2.85833C1.93613 2.98611 2.00002 3.14444 2.00002 3.33333V10H12.6667C12.8556 10 13.0139 10.0639 13.1417 10.1917C13.2695 10.3194 13.3334 10.4778 13.3334 10.6667C13.3334 10.8556 13.2695 11.0139 13.1417 11.1417C13.0139 11.2694 12.8556 11.3333 12.6667 11.3333H2.00002Z" fill="#545454"/>
</svg>
