<svg width="126" height="24" viewBox="0 0 126 24" fill="none" xmlns="http://www.w3.org/2000/svg">
<rect width="126" height="24" rx="4" fill="#FFC107"/>
<path d="M32 19.5C30.9583 19.5 29.9826 19.3021 29.0729 18.9062C28.1632 18.5104 27.3715 17.9757 26.6979 17.3021C26.0243 16.6285 25.4896 15.8368 25.0938 14.9271C24.6979 14.0174 24.5 13.0417 24.5 12C24.5 10.9583 24.6979 9.98264 25.0938 9.07292C25.4896 8.16319 26.0243 7.37153 26.6979 6.69792C27.3715 6.02431 28.1632 5.48958 29.0729 5.09375C29.9826 4.69792 30.9583 4.5 32 4.5C33.1389 4.5 34.2188 4.74306 35.2396 5.22917C36.2604 5.71528 37.125 6.40278 37.8333 7.29167V5.33333H39.5V10.3333H34.5V8.66667H36.7917C36.2222 7.88889 35.5208 7.27778 34.6875 6.83333C33.8542 6.38889 32.9583 6.16667 32 6.16667C30.375 6.16667 28.9965 6.73264 27.8646 7.86458C26.7326 8.99653 26.1667 10.375 26.1667 12C26.1667 13.625 26.7326 15.0035 27.8646 16.1354C28.9965 17.2674 30.375 17.8333 32 17.8333C33.4583 17.8333 34.7326 17.3611 35.8229 16.4167C36.9132 15.4722 37.5556 14.2778 37.75 12.8333H39.4583C39.25 14.7361 38.434 16.3229 37.0104 17.5938C35.5868 18.8646 33.9167 19.5 32 19.5ZM34.3333 15.5L31.1667 12.3333V7.83333H32.8333V11.6667L35.5 14.3333L34.3333 15.5Z" fill="white"/>
<path d="M53.854 9.668C53.854 10.1627 53.7373 10.6293 53.504 11.068C53.2707 11.5067 52.8973 11.866 52.384 12.146C51.8707 12.4167 51.2127 12.552 50.41 12.552H48.646V16.5H47.05V6.77H50.41C51.1567 6.77 51.7867 6.90067 52.3 7.162C52.8227 7.414 53.21 7.75933 53.462 8.198C53.7233 8.63667 53.854 9.12667 53.854 9.668ZM50.41 11.25C51.0167 11.25 51.4693 11.1147 51.768 10.844C52.0667 10.564 52.216 10.172 52.216 9.668C52.216 8.604 51.614 8.072 50.41 8.072H48.646V11.25H50.41ZM62.4462 12.454C62.4462 12.7433 62.4275 13.0047 62.3902 13.238H56.4962C56.5428 13.854 56.7715 14.3487 57.1822 14.722C57.5928 15.0953 58.0968 15.282 58.6942 15.282C59.5528 15.282 60.1595 14.9227 60.5142 14.204H62.2362C62.0028 14.9133 61.5782 15.4967 60.9622 15.954C60.3555 16.402 59.5995 16.626 58.6942 16.626C57.9568 16.626 57.2942 16.4627 56.7062 16.136C56.1275 15.8 55.6702 15.3333 55.3342 14.736C55.0075 14.1293 54.8442 13.4293 54.8442 12.636C54.8442 11.8427 55.0028 11.1473 55.3202 10.55C55.6468 9.94333 56.0995 9.47667 56.6782 9.15C57.2662 8.82333 57.9382 8.66 58.6942 8.66C59.4222 8.66 60.0708 8.81867 60.6402 9.136C61.2095 9.45333 61.6528 9.90133 61.9702 10.48C62.2875 11.0493 62.4462 11.7073 62.4462 12.454ZM60.7802 11.95C60.7708 11.362 60.5608 10.8907 60.1502 10.536C59.7395 10.1813 59.2308 10.004 58.6242 10.004C58.0735 10.004 57.6022 10.1813 57.2102 10.536C56.8182 10.8813 56.5848 11.3527 56.5102 11.95H60.7802ZM67.9088 8.66C68.5155 8.66 69.0568 8.786 69.5328 9.038C70.0181 9.29 70.3961 9.66333 70.6668 10.158C70.9375 10.6527 71.0728 11.25 71.0728 11.95V16.5H69.4908V12.188C69.4908 11.4973 69.3181 10.97 68.9728 10.606C68.6275 10.2327 68.1561 10.046 67.5588 10.046C66.9615 10.046 66.4855 10.2327 66.1308 10.606C65.7855 10.97 65.6128 11.4973 65.6128 12.188V16.5H64.0168V8.786H65.6128V9.668C65.8741 9.35067 66.2055 9.10333 66.6068 8.926C67.0175 8.74867 67.4515 8.66 67.9088 8.66ZM72.5766 12.608C72.5766 11.8333 72.7353 11.1473 73.0526 10.55C73.3793 9.95267 73.8179 9.49067 74.3686 9.164C74.9286 8.828 75.5493 8.66 76.2306 8.66C76.7346 8.66 77.2293 8.772 77.7146 8.996C78.2093 9.21067 78.6013 9.5 78.8906 9.864V6.14H80.5006V16.5H78.8906V15.338C78.6293 15.7113 78.2653 16.0193 77.7986 16.262C77.3413 16.5047 76.8139 16.626 76.2166 16.626C75.5446 16.626 74.9286 16.458 74.3686 16.122C73.8179 15.7767 73.3793 15.3007 73.0526 14.694C72.7353 14.078 72.5766 13.3827 72.5766 12.608ZM78.8906 12.636C78.8906 12.104 78.7786 11.642 78.5546 11.25C78.3399 10.858 78.0553 10.5593 77.7006 10.354C77.3459 10.1487 76.9633 10.046 76.5526 10.046C76.1419 10.046 75.7593 10.1487 75.4046 10.354C75.0499 10.55 74.7606 10.844 74.5366 11.236C74.3219 11.6187 74.2146 12.076 74.2146 12.608C74.2146 13.14 74.3219 13.6067 74.5366 14.008C74.7606 14.4093 75.0499 14.7173 75.4046 14.932C75.7686 15.1373 76.1513 15.24 76.5526 15.24C76.9633 15.24 77.3459 15.1373 77.7006 14.932C78.0553 14.7267 78.3399 14.428 78.5546 14.036C78.7786 13.6347 78.8906 13.168 78.8906 12.636ZM83.4089 7.764C83.1195 7.764 82.8769 7.666 82.6809 7.47C82.4849 7.274 82.3869 7.03133 82.3869 6.742C82.3869 6.45267 82.4849 6.21 82.6809 6.014C82.8769 5.818 83.1195 5.72 83.4089 5.72C83.6889 5.72 83.9269 5.818 84.1229 6.014C84.3189 6.21 84.4169 6.45267 84.4169 6.742C84.4169 7.03133 84.3189 7.274 84.1229 7.47C83.9269 7.666 83.6889 7.764 83.4089 7.764ZM84.1929 8.786V16.5H82.5969V8.786H84.1929ZM90.1803 8.66C90.7869 8.66 91.3283 8.786 91.8043 9.038C92.2896 9.29 92.6676 9.66333 92.9383 10.158C93.2089 10.6527 93.3443 11.25 93.3443 11.95V16.5H91.7623V12.188C91.7623 11.4973 91.5896 10.97 91.2443 10.606C90.8989 10.2327 90.4276 10.046 89.8303 10.046C89.2329 10.046 88.7569 10.2327 88.4023 10.606C88.0569 10.97 87.8843 11.4973 87.8843 12.188V16.5H86.2883V8.786H87.8843V9.668C88.1456 9.35067 88.4769 9.10333 88.8783 8.926C89.2889 8.74867 89.7229 8.66 90.1803 8.66ZM98.4881 8.66C99.0854 8.66 99.6127 8.78133 100.07 9.024C100.537 9.25733 100.901 9.55133 101.162 9.906V8.786H102.772V16.626C102.772 17.3353 102.623 17.9653 102.324 18.516C102.025 19.076 101.591 19.5147 101.022 19.832C100.462 20.1493 99.7901 20.308 99.0061 20.308C97.9607 20.308 97.0927 20.0607 96.4021 19.566C95.7114 19.0807 95.3194 18.418 95.2261 17.578H96.8081C96.9294 17.9793 97.1861 18.3013 97.5781 18.544C97.9794 18.796 98.4554 18.922 99.0061 18.922C99.6501 18.922 100.168 18.726 100.56 18.334C100.961 17.942 101.162 17.3727 101.162 16.626V15.338C100.891 15.702 100.523 16.01 100.056 16.262C99.5987 16.5047 99.0761 16.626 98.4881 16.626C97.8161 16.626 97.2001 16.458 96.6401 16.122C96.0894 15.7767 95.6507 15.3007 95.3241 14.694C95.0067 14.078 94.8481 13.3827 94.8481 12.608C94.8481 11.8333 95.0067 11.1473 95.3241 10.55C95.6507 9.95267 96.0894 9.49067 96.6401 9.164C97.2001 8.828 97.8161 8.66 98.4881 8.66ZM101.162 12.636C101.162 12.104 101.05 11.642 100.826 11.25C100.611 10.858 100.327 10.5593 99.9721 10.354C99.6174 10.1487 99.2347 10.046 98.8241 10.046C98.4134 10.046 98.0307 10.1487 97.6761 10.354C97.3214 10.55 97.0321 10.844 96.8081 11.236C96.5934 11.6187 96.4861 12.076 96.4861 12.608C96.4861 13.14 96.5934 13.6067 96.8081 14.008C97.0321 14.4093 97.3214 14.7173 97.6761 14.932C98.0401 15.1373 98.4227 15.24 98.8241 15.24C99.2347 15.24 99.6174 15.1373 99.9721 14.932C100.327 14.7267 100.611 14.428 100.826 14.036C101.05 13.6347 101.162 13.168 101.162 12.636Z" fill="white"/>
</svg>
