<svg width="16" height="16" viewBox="0 0 16 16" fill="none" xmlns="http://www.w3.org/2000/svg">
<path d="M8 15.5C6.95833 15.5 5.98264 15.3021 5.07292 14.9062C4.16319 14.5104 3.37153 13.9757 2.69792 13.3021C2.02431 12.6285 1.48958 11.8368 1.09375 10.9271C0.697917 10.0174 0.5 9.04167 0.5 8C0.5 6.95833 0.697917 5.98264 1.09375 5.07292C1.48958 4.16319 2.02431 3.37153 2.69792 2.69792C3.37153 2.02431 4.16319 1.48958 5.07292 1.09375C5.98264 0.697917 6.95833 0.5 8 0.5C9.13889 0.5 10.2188 0.743056 11.2396 1.22917C12.2604 1.71528 13.125 2.40278 13.8333 3.29167V1.33333H15.5V6.33333H10.5V4.66667H12.7917C12.2222 3.88889 11.5208 3.27778 10.6875 2.83333C9.85417 2.38889 8.95833 2.16667 8 2.16667C6.375 2.16667 4.99653 2.73264 3.86458 3.86458C2.73264 4.99653 2.16667 6.375 2.16667 8C2.16667 9.625 2.73264 11.0035 3.86458 12.1354C4.99653 13.2674 6.375 13.8333 8 13.8333C9.45833 13.8333 10.7326 13.3611 11.8229 12.4167C12.9132 11.4722 13.5556 10.2778 13.75 8.83333H15.4583C15.25 10.7361 14.434 12.3229 13.0104 13.5938C11.5868 14.8646 9.91667 15.5 8 15.5ZM10.3333 11.5L7.16667 8.33333V3.83333H8.83333V7.66667L11.5 10.3333L10.3333 11.5Z" fill="white"/>
</svg>
