<svg width="126" height="24" viewBox="0 0 126 24" fill="none" xmlns="http://www.w3.org/2000/svg">
<rect width="126" height="24" rx="4" fill="#AAAAAA"/>
<path d="M12.667 18.6667V16.3334C12.667 15.875 12.785 15.4445 13.0212 15.0417C13.2573 14.6389 13.5837 14.3334 14.0003 14.125C14.7087 13.7639 15.5073 13.4584 16.3962 13.2084C17.285 12.9584 18.2642 12.8334 19.3337 12.8334C19.7503 12.8334 20.1566 12.8542 20.5524 12.8959C20.9482 12.9375 21.3337 13 21.7087 13.0834L20.2503 14.5417C20.0975 14.5139 19.9482 14.5 19.8024 14.5H19.3337C18.3475 14.5 17.4621 14.6181 16.6774 14.8542C15.8927 15.0903 15.2503 15.3473 14.7503 15.625C14.6253 15.6945 14.5246 15.7917 14.4482 15.9167C14.3719 16.0417 14.3337 16.1806 14.3337 16.3334V17H19.542L21.2087 18.6667H12.667ZM23.9587 19L21.0837 16.125L22.2503 14.9584L23.9587 16.6667L28.167 12.4584L29.3337 13.625L23.9587 19ZM19.3337 12C18.417 12 17.6323 11.6737 16.9795 11.0209C16.3267 10.3681 16.0003 9.58337 16.0003 8.66671C16.0003 7.75004 16.3267 6.96532 16.9795 6.31254C17.6323 5.65976 18.417 5.33337 19.3337 5.33337C20.2503 5.33337 21.035 5.65976 21.6878 6.31254C22.3406 6.96532 22.667 7.75004 22.667 8.66671C22.667 9.58337 22.3406 10.3681 21.6878 11.0209C21.035 11.6737 20.2503 12 19.3337 12ZM19.3337 10.3334C19.792 10.3334 20.1844 10.1702 20.5107 9.84379C20.8371 9.5174 21.0003 9.12504 21.0003 8.66671C21.0003 8.20837 20.8371 7.81601 20.5107 7.48962C20.1844 7.16324 19.792 7.00004 19.3337 7.00004C18.8753 7.00004 18.483 7.16324 18.1566 7.48962C17.8302 7.81601 17.667 8.20837 17.667 8.66671C17.667 9.12504 17.8302 9.5174 18.1566 9.84379C18.483 10.1702 18.8753 10.3334 19.3337 10.3334Z" fill="white"/>
<path d="M41.104 16.5L38.864 12.608H37.646V16.5H36.05V6.77H39.41C40.1567 6.77 40.7867 6.90067 41.3 7.162C41.8227 7.42333 42.21 7.77333 42.462 8.212C42.7233 8.65067 42.854 9.14067 42.854 9.682C42.854 10.3167 42.6673 10.8953 42.294 11.418C41.93 11.9313 41.3653 12.2813 40.6 12.468L43.008 16.5H41.104ZM37.646 11.334H39.41C40.0073 11.334 40.4553 11.1847 40.754 10.886C41.062 10.5873 41.216 10.186 41.216 9.682C41.216 9.178 41.0667 8.786 40.768 8.506C40.4693 8.21667 40.0167 8.072 39.41 8.072H37.646V11.334ZM51.9657 12.454C51.9657 12.7433 51.947 13.0047 51.9097 13.238H46.0157C46.0624 13.854 46.291 14.3487 46.7017 14.722C47.1124 15.0953 47.6164 15.282 48.2137 15.282C49.0724 15.282 49.679 14.9227 50.0337 14.204H51.7557C51.5224 14.9133 51.0977 15.4967 50.4817 15.954C49.875 16.402 49.119 16.626 48.2137 16.626C47.4764 16.626 46.8137 16.4627 46.2257 16.136C45.647 15.8 45.1897 15.3333 44.8537 14.736C44.527 14.1293 44.3637 13.4293 44.3637 12.636C44.3637 11.8427 44.5224 11.1473 44.8397 10.55C45.1664 9.94333 45.619 9.47667 46.1977 9.15C46.7857 8.82333 47.4577 8.66 48.2137 8.66C48.9417 8.66 49.5904 8.81867 50.1597 9.136C50.729 9.45333 51.1724 9.90133 51.4897 10.48C51.807 11.0493 51.9657 11.7073 51.9657 12.454ZM50.2997 11.95C50.2904 11.362 50.0804 10.8907 49.6697 10.536C49.259 10.1813 48.7504 10.004 48.1437 10.004C47.593 10.004 47.1217 10.1813 46.7297 10.536C46.3377 10.8813 46.1044 11.3527 46.0297 11.95H50.2997ZM56.6443 8.66C57.2417 8.66 57.769 8.78133 58.2263 9.024C58.693 9.25733 59.057 9.55133 59.3183 9.906V8.786H60.9283V16.626C60.9283 17.3353 60.779 17.9653 60.4803 18.516C60.1817 19.076 59.7477 19.5147 59.1783 19.832C58.6183 20.1493 57.9463 20.308 57.1623 20.308C56.117 20.308 55.249 20.0607 54.5583 19.566C53.8677 19.0807 53.4757 18.418 53.3823 17.578H54.9643C55.0857 17.9793 55.3423 18.3013 55.7343 18.544C56.1357 18.796 56.6117 18.922 57.1623 18.922C57.8063 18.922 58.3243 18.726 58.7163 18.334C59.1177 17.942 59.3183 17.3727 59.3183 16.626V15.338C59.0477 15.702 58.679 16.01 58.2123 16.262C57.755 16.5047 57.2323 16.626 56.6443 16.626C55.9723 16.626 55.3563 16.458 54.7963 16.122C54.2457 15.7767 53.807 15.3007 53.4803 14.694C53.163 14.078 53.0043 13.3827 53.0043 12.608C53.0043 11.8333 53.163 11.1473 53.4803 10.55C53.807 9.95267 54.2457 9.49067 54.7963 9.164C55.3563 8.828 55.9723 8.66 56.6443 8.66ZM59.3183 12.636C59.3183 12.104 59.2063 11.642 58.9823 11.25C58.7677 10.858 58.483 10.5593 58.1283 10.354C57.7737 10.1487 57.391 10.046 56.9803 10.046C56.5697 10.046 56.187 10.1487 55.8323 10.354C55.4777 10.55 55.1883 10.844 54.9643 11.236C54.7497 11.6187 54.6423 12.076 54.6423 12.608C54.6423 13.14 54.7497 13.6067 54.9643 14.008C55.1883 14.4093 55.4777 14.7173 55.8323 14.932C56.1963 15.1373 56.579 15.24 56.9803 15.24C57.391 15.24 57.7737 15.1373 58.1283 14.932C58.483 14.7267 58.7677 14.428 58.9823 14.036C59.2063 13.6347 59.3183 13.168 59.3183 12.636ZM63.8366 7.764C63.5473 7.764 63.3046 7.666 63.1086 7.47C62.9126 7.274 62.8146 7.03133 62.8146 6.742C62.8146 6.45267 62.9126 6.21 63.1086 6.014C63.3046 5.818 63.5473 5.72 63.8366 5.72C64.1166 5.72 64.3546 5.818 64.5506 6.014C64.7466 6.21 64.8446 6.45267 64.8446 6.742C64.8446 7.03133 64.7466 7.274 64.5506 7.47C64.3546 7.666 64.1166 7.764 63.8366 7.764ZM64.6206 8.786V16.5H63.0246V8.786H64.6206ZM69.516 16.626C68.9093 16.626 68.3633 16.5187 67.878 16.304C67.402 16.08 67.024 15.7813 66.744 15.408C66.464 15.0253 66.3147 14.6007 66.296 14.134H67.948C67.976 14.4607 68.13 14.736 68.41 14.96C68.6993 15.1747 69.0587 15.282 69.488 15.282C69.936 15.282 70.2813 15.198 70.524 15.03C70.776 14.8527 70.902 14.6287 70.902 14.358C70.902 14.0687 70.762 13.854 70.482 13.714C70.2113 13.574 69.7773 13.42 69.18 13.252C68.6013 13.0933 68.13 12.9393 67.766 12.79C67.402 12.6407 67.0847 12.412 66.814 12.104C66.5527 11.796 66.422 11.39 66.422 10.886C66.422 10.4753 66.5433 10.102 66.786 9.766C67.0287 9.42067 67.374 9.15 67.822 8.954C68.2793 8.758 68.802 8.66 69.39 8.66C70.2673 8.66 70.972 8.884 71.504 9.332C72.0453 9.77067 72.3347 10.3727 72.372 11.138H70.776C70.748 10.7927 70.608 10.5173 70.356 10.312C70.104 10.1067 69.7633 10.004 69.334 10.004C68.914 10.004 68.592 10.0833 68.368 10.242C68.144 10.4007 68.032 10.6107 68.032 10.872C68.032 11.0773 68.1067 11.25 68.256 11.39C68.4053 11.53 68.5873 11.642 68.802 11.726C69.0167 11.8007 69.334 11.8987 69.754 12.02C70.314 12.1693 70.7713 12.3233 71.126 12.482C71.49 12.6313 71.8027 12.8553 72.064 13.154C72.3253 13.4527 72.4607 13.8493 72.47 14.344C72.47 14.7827 72.3487 15.1747 72.106 15.52C71.8633 15.8653 71.518 16.136 71.07 16.332C70.6313 16.528 70.1133 16.626 69.516 16.626ZM76.0565 10.088V14.358C76.0565 14.6473 76.1219 14.8573 76.2525 14.988C76.3925 15.1093 76.6259 15.17 76.9525 15.17H77.9325V16.5H76.6725C75.9539 16.5 75.4032 16.332 75.0205 15.996C74.6379 15.66 74.4465 15.114 74.4465 14.358V10.088H73.5365V8.786H74.4465V6.868H76.0565V8.786H77.9325V10.088H76.0565ZM86.4735 12.454C86.4735 12.7433 86.4548 13.0047 86.4175 13.238H80.5235C80.5702 13.854 80.7988 14.3487 81.2095 14.722C81.6202 15.0953 82.1242 15.282 82.7215 15.282C83.5802 15.282 84.1868 14.9227 84.5415 14.204H86.2635C86.0302 14.9133 85.6055 15.4967 84.9895 15.954C84.3828 16.402 83.6268 16.626 82.7215 16.626C81.9842 16.626 81.3215 16.4627 80.7335 16.136C80.1548 15.8 79.6975 15.3333 79.3615 14.736C79.0348 14.1293 78.8715 13.4293 78.8715 12.636C78.8715 11.8427 79.0302 11.1473 79.3475 10.55C79.6742 9.94333 80.1268 9.47667 80.7055 9.15C81.2935 8.82333 81.9655 8.66 82.7215 8.66C83.4495 8.66 84.0982 8.81867 84.6675 9.136C85.2368 9.45333 85.6802 9.90133 85.9975 10.48C86.3148 11.0493 86.4735 11.7073 86.4735 12.454ZM84.8075 11.95C84.7982 11.362 84.5882 10.8907 84.1775 10.536C83.7668 10.1813 83.2582 10.004 82.6515 10.004C82.1008 10.004 81.6295 10.1813 81.2375 10.536C80.8455 10.8813 80.6122 11.3527 80.5375 11.95H84.8075ZM89.6401 9.906C89.8735 9.514 90.1815 9.21067 90.5641 8.996C90.9561 8.772 91.4181 8.66 91.9501 8.66V10.312H91.5441C90.9188 10.312 90.4428 10.4707 90.1161 10.788C89.7988 11.1053 89.6401 11.656 89.6401 12.44V16.5H88.0441V8.786H89.6401V9.906ZM100.487 12.454C100.487 12.7433 100.469 13.0047 100.431 13.238H94.5372C94.5839 13.854 94.8125 14.3487 95.2232 14.722C95.6339 15.0953 96.1379 15.282 96.7352 15.282C97.5939 15.282 98.2005 14.9227 98.5552 14.204H100.277C100.044 14.9133 99.6192 15.4967 99.0032 15.954C98.3965 16.402 97.6405 16.626 96.7352 16.626C95.9979 16.626 95.3352 16.4627 94.7472 16.136C94.1685 15.8 93.7112 15.3333 93.3752 14.736C93.0485 14.1293 92.8852 13.4293 92.8852 12.636C92.8852 11.8427 93.0439 11.1473 93.3612 10.55C93.6879 9.94333 94.1405 9.47667 94.7192 9.15C95.3072 8.82333 95.9792 8.66 96.7352 8.66C97.4632 8.66 98.1119 8.81867 98.6812 9.136C99.2505 9.45333 99.6939 9.90133 100.011 10.48C100.329 11.0493 100.487 11.7073 100.487 12.454ZM98.8212 11.95C98.8119 11.362 98.6019 10.8907 98.1912 10.536C97.7805 10.1813 97.2719 10.004 96.6652 10.004C96.1145 10.004 95.6432 10.1813 95.2512 10.536C94.8592 10.8813 94.6259 11.3527 94.5512 11.95H98.8212ZM101.526 12.608C101.526 11.8333 101.684 11.1473 102.002 10.55C102.328 9.95267 102.767 9.49067 103.318 9.164C103.878 8.828 104.498 8.66 105.18 8.66C105.684 8.66 106.178 8.772 106.664 8.996C107.158 9.21067 107.55 9.5 107.84 9.864V6.14H109.45V16.5H107.84V15.338C107.578 15.7113 107.214 16.0193 106.748 16.262C106.29 16.5047 105.763 16.626 105.166 16.626C104.494 16.626 103.878 16.458 103.318 16.122C102.767 15.7767 102.328 15.3007 102.002 14.694C101.684 14.078 101.526 13.3827 101.526 12.608ZM107.84 12.636C107.84 12.104 107.728 11.642 107.504 11.25C107.289 10.858 107.004 10.5593 106.65 10.354C106.295 10.1487 105.912 10.046 105.502 10.046C105.091 10.046 104.708 10.1487 104.354 10.354C103.999 10.55 103.71 10.844 103.486 11.236C103.271 11.6187 103.164 12.076 103.164 12.608C103.164 13.14 103.271 13.6067 103.486 14.008C103.71 14.4093 103.999 14.7173 104.354 14.932C104.718 15.1373 105.1 15.24 105.502 15.24C105.912 15.24 106.295 15.1373 106.65 14.932C107.004 14.7267 107.289 14.428 107.504 14.036C107.728 13.6347 107.84 13.168 107.84 12.636Z" fill="white"/>
</svg>
