<svg width="126" height="24" viewBox="0 0 126 24" fill="none" xmlns="http://www.w3.org/2000/svg">
<rect width="126" height="24" rx="4" fill="#DC3545"/>
<path d="M30.0003 20.3334C28.8475 20.3334 27.7642 20.1146 26.7503 19.6771C25.7364 19.2396 24.8545 18.6459 24.1045 17.8959C23.3545 17.1459 22.7607 16.2639 22.3232 15.25C21.8857 14.2361 21.667 13.1528 21.667 12C21.667 10.8472 21.8857 9.76391 22.3232 8.75002C22.7607 7.73613 23.3545 6.85419 24.1045 6.10419C24.8545 5.35419 25.7364 4.76044 26.7503 4.32294C27.7642 3.88544 28.8475 3.66669 30.0003 3.66669C31.1531 3.66669 32.2364 3.88544 33.2503 4.32294C34.2642 4.76044 35.1462 5.35419 35.8962 6.10419C36.6462 6.85419 37.2399 7.73613 37.6774 8.75002C38.1149 9.76391 38.3337 10.8472 38.3337 12C38.3337 13.1528 38.1149 14.2361 37.6774 15.25C37.2399 16.2639 36.6462 17.1459 35.8962 17.8959C35.1462 18.6459 34.2642 19.2396 33.2503 19.6771C32.2364 20.1146 31.1531 20.3334 30.0003 20.3334ZM30.0003 18.6667C31.8614 18.6667 33.4378 18.0209 34.7295 16.7292C36.0212 15.4375 36.667 13.8611 36.667 12C36.667 11.25 36.5455 10.5278 36.3024 9.83335C36.0594 9.13891 35.7087 8.50002 35.2503 7.91669L25.917 17.25C26.5003 17.7084 27.1392 18.059 27.8337 18.3021C28.5281 18.5452 29.2503 18.6667 30.0003 18.6667ZM24.7503 16.0834L34.0837 6.75002C33.5003 6.29169 32.8614 5.94099 32.167 5.69794C31.4725 5.45488 30.7503 5.33335 30.0003 5.33335C28.1392 5.33335 26.5628 5.97919 25.2712 7.27085C23.9795 8.56252 23.3337 10.1389 23.3337 12C23.3337 12.75 23.4552 13.4722 23.6982 14.1667C23.9413 14.8611 24.292 15.5 24.7503 16.0834Z" fill="white"/>
<path d="M50.104 16.5L47.864 12.608H46.646V16.5H45.05V6.77H48.41C49.1567 6.77 49.7867 6.90067 50.3 7.162C50.8227 7.42333 51.21 7.77333 51.462 8.212C51.7233 8.65067 51.854 9.14067 51.854 9.682C51.854 10.3167 51.6673 10.8953 51.294 11.418C50.93 11.9313 50.3653 12.2813 49.6 12.468L52.008 16.5H50.104ZM46.646 11.334H48.41C49.0073 11.334 49.4553 11.1847 49.754 10.886C50.062 10.5873 50.216 10.186 50.216 9.682C50.216 9.178 50.0667 8.786 49.768 8.506C49.4693 8.21667 49.0167 8.072 48.41 8.072H46.646V11.334ZM60.9657 12.454C60.9657 12.7433 60.947 13.0047 60.9097 13.238H55.0157C55.0624 13.854 55.291 14.3487 55.7017 14.722C56.1124 15.0953 56.6164 15.282 57.2137 15.282C58.0724 15.282 58.679 14.9227 59.0337 14.204H60.7557C60.5224 14.9133 60.0977 15.4967 59.4817 15.954C58.875 16.402 58.119 16.626 57.2137 16.626C56.4764 16.626 55.8137 16.4627 55.2257 16.136C54.647 15.8 54.1897 15.3333 53.8537 14.736C53.527 14.1293 53.3637 13.4293 53.3637 12.636C53.3637 11.8427 53.5224 11.1473 53.8397 10.55C54.1664 9.94333 54.619 9.47667 55.1977 9.15C55.7857 8.82333 56.4577 8.66 57.2137 8.66C57.9417 8.66 58.5904 8.81867 59.1597 9.136C59.729 9.45333 60.1724 9.90133 60.4897 10.48C60.807 11.0493 60.9657 11.7073 60.9657 12.454ZM59.2997 11.95C59.2904 11.362 59.0804 10.8907 58.6697 10.536C58.259 10.1813 57.7504 10.004 57.1437 10.004C56.593 10.004 56.1217 10.1813 55.7297 10.536C55.3377 10.8813 55.1044 11.3527 55.0297 11.95H59.2997ZM63.3483 7.764C63.059 7.764 62.8163 7.666 62.6203 7.47C62.4243 7.274 62.3263 7.03133 62.3263 6.742C62.3263 6.45267 62.4243 6.21 62.6203 6.014C62.8163 5.818 63.059 5.72 63.3483 5.72C63.6283 5.72 63.8663 5.818 64.0623 6.014C64.2583 6.21 64.3563 6.45267 64.3563 6.742C64.3563 7.03133 64.2583 7.274 64.0623 7.47C63.8663 7.666 63.6283 7.764 63.3483 7.764ZM64.1323 18.012C64.1323 18.768 63.941 19.314 63.5583 19.65C63.185 19.9953 62.639 20.168 61.9203 20.168H61.0943V18.824H61.6403C61.967 18.824 62.1957 18.7587 62.3263 18.628C62.4663 18.5067 62.5363 18.3013 62.5363 18.012V8.786H64.1323V18.012ZM73.2977 12.454C73.2977 12.7433 73.2791 13.0047 73.2417 13.238H67.3477C67.3944 13.854 67.6231 14.3487 68.0337 14.722C68.4444 15.0953 68.9484 15.282 69.5457 15.282C70.4044 15.282 71.0111 14.9227 71.3657 14.204H73.0877C72.8544 14.9133 72.4297 15.4967 71.8137 15.954C71.2071 16.402 70.4511 16.626 69.5457 16.626C68.8084 16.626 68.1457 16.4627 67.5577 16.136C66.9791 15.8 66.5217 15.3333 66.1857 14.736C65.8591 14.1293 65.6957 13.4293 65.6957 12.636C65.6957 11.8427 65.8544 11.1473 66.1717 10.55C66.4984 9.94333 66.9511 9.47667 67.5297 9.15C68.1177 8.82333 68.7897 8.66 69.5457 8.66C70.2737 8.66 70.9224 8.81867 71.4917 9.136C72.0611 9.45333 72.5044 9.90133 72.8217 10.48C73.1391 11.0493 73.2977 11.7073 73.2977 12.454ZM71.6317 11.95C71.6224 11.362 71.4124 10.8907 71.0017 10.536C70.5911 10.1813 70.0824 10.004 69.4757 10.004C68.9251 10.004 68.4537 10.1813 68.0617 10.536C67.6697 10.8813 67.4364 11.3527 67.3617 11.95H71.6317ZM74.3364 12.636C74.3364 11.8427 74.495 11.1473 74.8124 10.55C75.139 9.94333 75.587 9.47667 76.1564 9.15C76.7257 8.82333 77.379 8.66 78.1164 8.66C79.0497 8.66 79.8197 8.884 80.4264 9.332C81.0424 9.77067 81.4577 10.4007 81.6724 11.222H79.9504C79.8104 10.8393 79.5864 10.5407 79.2784 10.326C78.9704 10.1113 78.583 10.004 78.1164 10.004C77.463 10.004 76.9404 10.2373 76.5484 10.704C76.1657 11.1613 75.9744 11.8053 75.9744 12.636C75.9744 13.4667 76.1657 14.1153 76.5484 14.582C76.9404 15.0487 77.463 15.282 78.1164 15.282C79.0404 15.282 79.6517 14.876 79.9504 14.064H81.6724C81.4484 14.848 81.0284 15.4733 80.4124 15.94C79.7964 16.3973 79.031 16.626 78.1164 16.626C77.379 16.626 76.7257 16.4627 76.1564 16.136C75.587 15.8 75.139 15.3333 74.8124 14.736C74.495 14.1293 74.3364 13.4293 74.3364 12.636ZM85.1249 10.088V14.358C85.1249 14.6473 85.1902 14.8573 85.3209 14.988C85.4609 15.1093 85.6942 15.17 86.0209 15.17H87.0009V16.5H85.7409C85.0222 16.5 84.4716 16.332 84.0889 15.996C83.7062 15.66 83.5149 15.114 83.5149 14.358V10.088H82.6049V8.786H83.5149V6.868H85.1249V8.786H87.0009V10.088H85.1249ZM95.5419 12.454C95.5419 12.7433 95.5232 13.0047 95.4859 13.238H89.5919C89.6385 13.854 89.8672 14.3487 90.2779 14.722C90.6885 15.0953 91.1925 15.282 91.7899 15.282C92.6485 15.282 93.2552 14.9227 93.6099 14.204H95.3319C95.0985 14.9133 94.6739 15.4967 94.0579 15.954C93.4512 16.402 92.6952 16.626 91.7899 16.626C91.0525 16.626 90.3899 16.4627 89.8019 16.136C89.2232 15.8 88.7659 15.3333 88.4299 14.736C88.1032 14.1293 87.9399 13.4293 87.9399 12.636C87.9399 11.8427 88.0985 11.1473 88.4159 10.55C88.7425 9.94333 89.1952 9.47667 89.7739 9.15C90.3619 8.82333 91.0339 8.66 91.7899 8.66C92.5179 8.66 93.1665 8.81867 93.7359 9.136C94.3052 9.45333 94.7485 9.90133 95.0659 10.48C95.3832 11.0493 95.5419 11.7073 95.5419 12.454ZM93.8759 11.95C93.8665 11.362 93.6565 10.8907 93.2459 10.536C92.8352 10.1813 92.3265 10.004 91.7199 10.004C91.1692 10.004 90.6979 10.1813 90.3059 10.536C89.9139 10.8813 89.6805 11.3527 89.6059 11.95H93.8759ZM96.5805 12.608C96.5805 11.8333 96.7392 11.1473 97.0565 10.55C97.3832 9.95267 97.8218 9.49067 98.3725 9.164C98.9325 8.828 99.5532 8.66 100.235 8.66C100.739 8.66 101.233 8.772 101.719 8.996C102.213 9.21067 102.605 9.5 102.895 9.864V6.14H104.505V16.5H102.895V15.338C102.633 15.7113 102.269 16.0193 101.803 16.262C101.345 16.5047 100.818 16.626 100.221 16.626C99.5485 16.626 98.9325 16.458 98.3725 16.122C97.8218 15.7767 97.3832 15.3007 97.0565 14.694C96.7392 14.078 96.5805 13.3827 96.5805 12.608ZM102.895 12.636C102.895 12.104 102.783 11.642 102.559 11.25C102.344 10.858 102.059 10.5593 101.705 10.354C101.35 10.1487 100.967 10.046 100.557 10.046C100.146 10.046 99.7632 10.1487 99.4085 10.354C99.0538 10.55 98.7645 10.844 98.5405 11.236C98.3258 11.6187 98.2185 12.076 98.2185 12.608C98.2185 13.14 98.3258 13.6067 98.5405 14.008C98.7645 14.4093 99.0538 14.7173 99.4085 14.932C99.7725 15.1373 100.155 15.24 100.557 15.24C100.967 15.24 101.35 15.1373 101.705 14.932C102.059 14.7267 102.344 14.428 102.559 14.036C102.783 13.6347 102.895 13.168 102.895 12.636Z" fill="white"/>
</svg>
