<svg width="150" height="150" viewBox="0 0 150 150" fill="none" xmlns="http://www.w3.org/2000/svg">
<g clip-path="url(#clip0_132_85219)">
<path d="M36.2571 150C33.5158 149.196 31.1401 147.917 29.6781 145.322C26.9735 140.57 28.6547 134.832 33.5524 132.383C34.393 131.944 34.6123 131.469 34.6123 130.592C34.5758 123.721 34.6854 116.849 34.5758 109.978C34.4296 100.256 38.0115 92.288 45.5042 86.0015C49.6708 82.4927 53.7278 78.8377 57.9676 75.1462C57.127 74.4152 56.396 73.7573 55.6284 73.0629C52.01 69.883 48.355 66.7032 44.7366 63.5234C37.9018 57.5658 34.6123 50 34.6123 40.9722C34.6123 33.9547 34.6123 26.9371 34.6489 19.9196C34.6489 18.8962 34.4661 18.3114 33.4062 17.7997C29.8609 16.0453 27.9237 12.171 28.5085 8.33332C29.1299 4.27631 32.0904 1.16958 36.0743 0.475137C36.8784 0.328939 37.7191 0.292389 38.5597 0.292389C62.9749 0.292389 87.3901 0.292389 111.769 0.292389C116.63 0.292389 120.139 2.66812 121.418 6.79824C122.807 11.1842 121.016 15.7529 116.922 17.8362C115.899 18.3479 115.68 18.9327 115.68 19.9561C115.716 26.7178 115.606 33.5161 115.716 40.2778C115.862 50.0731 112.244 58.0409 104.715 64.364C100.585 67.8363 96.5641 71.4547 92.1416 75.3289C92.5802 75.6213 93.0188 75.7675 93.3112 76.0599C97.3682 79.5687 101.389 83.114 105.409 86.6228C112.354 92.6535 115.68 100.256 115.643 109.43C115.606 116.447 115.643 123.465 115.606 130.482C115.606 131.469 115.862 132.018 116.813 132.493C120.175 134.174 122.112 137.792 121.82 141.374C121.454 145.285 119.006 148.392 115.314 149.561C114.839 149.708 114.4 149.89 113.962 150.037C88.1211 150 62.1708 150 36.2571 150ZM40.972 131.213C63.779 131.213 86.5495 131.213 109.356 131.213C109.393 130.958 109.43 130.775 109.43 130.592C109.43 123.026 109.466 115.497 109.393 107.931C109.32 101.791 106.981 96.5278 102.449 92.3977C97.1854 87.6096 91.7761 82.9678 86.4398 78.2895C83.8813 76.0599 83.8813 74.269 86.4398 72.0395C91.4837 67.6535 96.491 63.2675 101.498 58.845C106.067 54.8611 109.028 49.9269 109.247 43.8231C109.539 35.7822 109.356 27.7412 109.393 19.7003C109.393 19.5175 109.356 19.3348 109.32 19.0789C86.5129 19.0789 63.7425 19.0789 40.9354 19.0789C40.8989 19.3348 40.8623 19.5175 40.8623 19.7003C40.8623 27.2661 40.8258 34.7953 40.8989 42.3611C40.972 48.5015 43.3112 53.7646 47.8433 57.8947C53.1065 62.6827 58.5159 67.3246 63.8521 72.0029C66.4106 74.2324 66.4106 76.0234 63.8521 78.2529C58.8082 82.6389 53.8009 87.0248 48.7936 91.4474C44.2249 95.4313 41.2644 100.365 41.0451 106.469C40.7527 114.51 40.9354 122.551 40.8989 130.592C40.8623 130.775 40.9354 130.958 40.972 131.213Z" fill="#545454"/>
<path d="M75.0727 125.073C67.1415 125.073 59.2102 125.073 51.2423 125.073C50.4748 125.073 49.6707 125.037 48.9397 124.744C46.966 123.977 46.4909 121.601 47.9529 119.737C50.5844 116.374 53.2891 113.048 55.9572 109.686C61.2935 102.997 66.6663 96.3085 72.0026 89.6199C74.0494 87.0614 76.1692 87.0614 78.216 89.6199C86.1473 99.5614 94.0786 109.466 102.046 119.408C102.887 120.431 103.472 121.491 103.033 122.88C102.522 124.379 101.389 125.073 99.3417 125.073C92.0318 125.073 84.7219 125.073 77.4119 125.073C76.6444 125.073 75.8403 125.073 75.0727 125.073Z" fill="#66CCFF"/>
<path d="M75.1823 50.2193C79.1297 50.2193 83.0771 50.2558 87.0244 50.2193C88.5595 50.2193 89.8388 50.6213 90.4601 52.1199C91.0815 53.6184 90.4967 54.8611 89.4002 55.921C85.5259 59.7588 81.6882 63.633 77.8139 67.4707C75.9499 69.3348 74.2686 69.2982 72.368 67.4342C68.5303 63.633 64.7291 59.7953 60.8914 55.9576C59.7584 54.8245 59.1736 53.5819 59.8315 52.0102C60.4893 50.4751 61.8051 50.1462 63.3037 50.1462C67.2876 50.2193 71.235 50.2193 75.1823 50.2193Z" fill="#66CCFF"/>
</g>
<defs>
<clipPath id="clip0_132_85219">
<rect width="150" height="150" fill="white"/>
</clipPath>
</defs>
</svg>
