<svg width="16" height="17" viewBox="0 0 16 17" fill="none" xmlns="http://www.w3.org/2000/svg">
<path d="M11.3333 14.6667H4.66667C2.23334 14.6667 0.833336 13.2667 0.833336 10.8334V6.16671C0.833336 3.73337 2.23334 2.33337 4.66667 2.33337H11.3333C13.7667 2.33337 15.1667 3.73337 15.1667 6.16671V10.8334C15.1667 13.2667 13.7667 14.6667 11.3333 14.6667ZM4.66667 3.33337C2.76 3.33337 1.83334 4.26004 1.83334 6.16671V10.8334C1.83334 12.74 2.76 13.6667 4.66667 13.6667H11.3333C13.24 13.6667 14.1667 12.74 14.1667 10.8334V6.16671C14.1667 4.26004 13.24 3.33337 11.3333 3.33337H4.66667Z" fill="white"/>
<path d="M7.99985 9.07998C7.43985 9.07998 6.87319 8.90665 6.43985 8.55331L4.35318 6.88665C4.13985 6.71331 4.09985 6.39998 4.27319 6.18665C4.44652 5.97331 4.75985 5.93332 4.97319 6.10665L7.05985 7.77332C7.56651 8.17998 8.42651 8.17998 8.93318 7.77332L11.0198 6.10665C11.2332 5.93332 11.5532 5.96665 11.7199 6.18665C11.8932 6.39998 11.8599 6.71998 11.6399 6.88665L9.55318 8.55331C9.12652 8.90665 8.55985 9.07998 7.99985 9.07998Z" fill="white"/>
</svg>
