<svg width="18" height="18" viewBox="0 0 18 18" fill="none" xmlns="http://www.w3.org/2000/svg">
<path d="M9.00033 17.3334C7.84755 17.3334 6.76421 17.1147 5.75033 16.6772C4.73644 16.2397 3.85449 15.6459 3.10449 14.8959C2.35449 14.1459 1.76074 13.264 1.32324 12.2501C0.885742 11.2362 0.666992 10.1529 0.666992 9.00008C0.666992 7.8473 0.885742 6.76397 1.32324 5.75008C1.76074 4.73619 2.35449 3.85425 3.10449 3.10425C3.85449 2.35425 4.73644 1.7605 5.75033 1.323C6.76421 0.885498 7.84755 0.666748 9.00033 0.666748C10.1531 0.666748 11.2364 0.885498 12.2503 1.323C13.2642 1.7605 14.1462 2.35425 14.8962 3.10425C15.6462 3.85425 16.2399 4.73619 16.6774 5.75008C17.1149 6.76397 17.3337 7.8473 17.3337 9.00008C17.3337 10.1529 17.1149 11.2362 16.6774 12.2501C16.2399 13.264 15.6462 14.1459 14.8962 14.8959C14.1462 15.6459 13.2642 16.2397 12.2503 16.6772C11.2364 17.1147 10.1531 17.3334 9.00033 17.3334ZM9.00033 15.6667C10.8614 15.6667 12.4378 15.0209 13.7295 13.7292C15.0212 12.4376 15.667 10.8612 15.667 9.00008C15.667 8.25008 15.5455 7.52786 15.3024 6.83341C15.0594 6.13897 14.7087 5.50008 14.2503 4.91675L4.91699 14.2501C5.50033 14.7084 6.13921 15.0591 6.83366 15.3022C7.5281 15.5452 8.25033 15.6667 9.00033 15.6667ZM3.75033 13.0834L13.0837 3.75008C12.5003 3.29175 11.8614 2.94105 11.167 2.698C10.4725 2.45494 9.75033 2.33341 9.00033 2.33341C7.13921 2.33341 5.56283 2.97925 4.27116 4.27091C2.97949 5.56258 2.33366 7.13897 2.33366 9.00008C2.33366 9.75008 2.45519 10.4723 2.69824 11.1667C2.9413 11.8612 3.29199 12.5001 3.75033 13.0834Z" fill="white"/>
</svg>
