<svg width="22" height="18" viewBox="0 0 22 18" fill="none" xmlns="http://www.w3.org/2000/svg">
<path d="M21.8384 2.12097C21.2446 2.99597 20.5181 3.73816 19.6587 4.34753C19.6743 4.47253 19.6821 4.66003 19.6821 4.91003C19.6821 6.06628 19.5103 7.22253 19.1665 8.37878C18.8228 9.53503 18.3071 10.6444 17.6196 11.7069C16.9321 12.7694 16.1118 13.7147 15.1587 14.5428C14.1899 15.3553 13.0337 16.0038 11.6899 16.4882C10.3462 16.9725 8.90869 17.2147 7.37744 17.2147C4.95557 17.2147 2.73682 16.5663 0.721191 15.2694C1.03369 15.3163 1.38525 15.3397 1.77588 15.3397C3.77588 15.3397 5.56494 14.7225 7.14307 13.4882C6.20557 13.4725 5.36182 13.1835 4.61182 12.621C3.87744 12.0585 3.36963 11.3475 3.08838 10.4882C3.38525 10.535 3.65869 10.5585 3.90869 10.5585C4.29932 10.5585 4.68213 10.5038 5.05713 10.3944C4.05713 10.1913 3.229 9.6991 2.57275 8.91785C1.9165 8.12097 1.58838 7.1991 1.58838 6.15222V6.10535C2.19775 6.4491 2.84619 6.62878 3.53369 6.64441C2.93994 6.25378 2.47119 5.74597 2.12744 5.12097C1.78369 4.48035 1.61182 3.79285 1.61182 3.05847C1.61182 2.2616 1.80713 1.52722 2.19775 0.855347C3.27588 2.1991 4.58838 3.26941 6.13525 4.06628C7.68213 4.86316 9.34619 5.30847 11.1274 5.40222C11.0493 5.05847 11.0103 4.72253 11.0103 4.39441C11.0103 3.20691 11.4321 2.19128 12.2759 1.34753C13.1196 0.503784 14.1431 0.0819092 15.3462 0.0819092C16.5962 0.0819092 17.6431 0.535034 18.4868 1.44128C19.4712 1.25378 20.3931 0.902222 21.2524 0.386597C20.9087 1.41785 20.2681 2.21472 19.3306 2.77722C20.1743 2.68347 21.0103 2.46472 21.8384 2.12097Z" fill="white"/>
</svg>
