<svg width="64" height="44" viewBox="0 0 64 44" fill="none" xmlns="http://www.w3.org/2000/svg">
<path d="M51.6 16.7732C49.7867 7.57317 41.7067 0.666504 32 0.666504C24.2933 0.666504 17.6 5.03984 14.2667 11.4398C6.24 12.2932 0 19.0932 0 27.3332C0 36.1598 7.17333 43.3332 16 43.3332H50.6667C58.0267 43.3332 64 37.3598 64 29.9998C64 22.9598 58.5333 17.2532 51.6 16.7732ZM50.6667 37.9998H16C10.1067 37.9998 5.33333 33.2265 5.33333 27.3332C5.33333 21.8665 9.41333 17.3065 14.8267 16.7465L17.68 16.4532L19.0133 13.9198C21.5467 9.03984 26.5067 5.99984 32 5.99984C38.9867 5.99984 45.0133 10.9598 46.3733 17.8132L47.1733 21.8132L51.2533 22.1065C55.4133 22.3732 58.6667 25.8665 58.6667 29.9998C58.6667 34.3998 55.0667 37.9998 50.6667 37.9998ZM21.3333 24.6665H28.1333V32.6665H35.8667V24.6665H42.6667L32 13.9998L21.3333 24.6665Z" fill="#66CCFF"/>
</svg>
