<svg width="16" height="16" viewBox="0 0 16 16" fill="none" xmlns="http://www.w3.org/2000/svg">
<g clip-path="url(#clip0_455_117220)">
<path d="M7.99935 3.93329C8.77268 3.93329 9.39935 4.55996 9.39935 5.33329C9.39935 6.10663 8.77268 6.73329 7.99935 6.73329C7.22602 6.73329 6.59935 6.10663 6.59935 5.33329C6.59935 4.55996 7.22602 3.93329 7.99935 3.93329ZM7.99935 9.93329C9.97935 9.93329 12.066 10.9066 12.066 11.3333V12.0666H3.93268V11.3333C3.93268 10.9066 6.01935 9.93329 7.99935 9.93329ZM7.99935 2.66663C6.52602 2.66663 5.33268 3.85996 5.33268 5.33329C5.33268 6.80663 6.52602 7.99996 7.99935 7.99996C9.47268 7.99996 10.666 6.80663 10.666 5.33329C10.666 3.85996 9.47268 2.66663 7.99935 2.66663ZM7.99935 8.66663C6.21935 8.66663 2.66602 9.55996 2.66602 11.3333V13.3333H13.3327V11.3333C13.3327 9.55996 9.77935 8.66663 7.99935 8.66663Z" fill="#545454"/>
</g>
<defs>
<clipPath id="clip0_455_117220">
<rect width="16" height="16" fill="white"/>
</clipPath>
</defs>
</svg>
