<svg width="22" height="18" viewBox="0 0 22 18" fill="none" xmlns="http://www.w3.org/2000/svg">
<path d="M1.72485 18C1.54152 18 1.37485 17.9543 1.22485 17.863C1.07485 17.771 0.958187 17.65 0.874853 17.5C0.79152 17.35 0.745853 17.1873 0.737853 17.012C0.729187 16.8373 0.774853 16.6667 0.874853 16.5L10.1249 0.5C10.2249 0.333333 10.3539 0.208333 10.5119 0.125C10.6705 0.0416667 10.8332 0 10.9999 0C11.1665 0 11.3292 0.0416667 11.4879 0.125C11.6459 0.208333 11.7749 0.333333 11.8749 0.5L21.1249 16.5C21.2249 16.6667 21.2709 16.8373 21.2629 17.012C21.2542 17.1873 21.2082 17.35 21.1249 17.5C21.0415 17.65 20.9249 17.771 20.7749 17.863C20.6249 17.9543 20.4582 18 20.2749 18H1.72485ZM10.9999 15C11.2832 15 11.5209 14.904 11.7129 14.712C11.9042 14.5207 11.9999 14.2833 11.9999 14C11.9999 13.7167 11.9042 13.4793 11.7129 13.288C11.5209 13.096 11.2832 13 10.9999 13C10.7165 13 10.4792 13.096 10.2879 13.288C10.0959 13.4793 9.99985 13.7167 9.99985 14C9.99985 14.2833 10.0959 14.5207 10.2879 14.712C10.4792 14.904 10.7165 15 10.9999 15ZM10.9999 12C11.2832 12 11.5209 11.904 11.7129 11.712C11.9042 11.5207 11.9999 11.2833 11.9999 11V8C11.9999 7.71667 11.9042 7.479 11.7129 7.287C11.5209 7.09567 11.2832 7 10.9999 7C10.7165 7 10.4792 7.09567 10.2879 7.287C10.0959 7.479 9.99985 7.71667 9.99985 8V11C9.99985 11.2833 10.0959 11.5207 10.2879 11.712C10.4792 11.904 10.7165 12 10.9999 12Z" fill="#FFC107"/>
</svg>
