<?xml version="1.0" encoding="UTF-8"?><svg id="b" xmlns="http://www.w3.org/2000/svg" viewBox="0 0 600 600"><defs><style>.d{fill:#fff;}.d,.e{stroke-width:0px;}.e{fill:#6cf;}</style></defs><path class="e" d="m64.69,315.01c.32,1.03.69,2.04,1.06,3.07.21.57.42,1.16.65,1.73.34.93.72,1.84,1.12,2.76.32.73.66,1.45,1.01,2.17.37.79.73,1.59,1.14,2.37.74,1.43,1.55,2.83,2.41,4.21.29.48.64.95.96,1.42.68,1.01,1.38,2.02,2.12,2.98.38.53.8,1.01,1.21,1.52.79.95,1.61,1.88,2.47,2.78.39.43.78.84,1.19,1.24,1.29,1.27,2.64,2.51,4.1,3.65,1.14.89,2.36,1.74,3.63,2.56.25.17.49.32.74.49,1.31.82,2.65,1.6,4.08,2.33.12.05.23.11.35.16,1.45.73,2.97,1.41,4.55,2.04.11.04.22.08.33.12,1.7.67,3.47,1.26,5.34,1.77.1.02.21.06.32.09,3.84,1.06,8.04,1.85,12.68,2.28.06,0,.11,0,.16,0,4.73.44,9.89.49,15.55.14-6.74-18.02-10.45-37.51-10.45-57.9,0-81.17,58.56-148.64,135.71-162.56v174.02c16.94-9.59,35.31-20.89,55.19-34.12V77.92c-8.41-.97-16.97-1.51-25.65-1.51-122.94,0-222.59,99.65-222.59,222.59,0,5.39.27,10.71.64,16.01h0Z"/><path class="e" d="m509.1,293.63l-.49-.48c-9.55,6.57-30.97,20.98-59.87,38.03-14.97,75.85-81.84,133.06-162.09,133.06-38.93,0-74.69-13.5-102.94-36.02-20.32.91-40.06-.51-58.61-5.25-2.57-.37-14.32-2.32-28.7-8.38,39.06,64.16,109.64,107,190.25,107,122.94,0,222.59-99.65,222.59-222.59,0-1.79-.1-3.57-.14-5.36"/><path class="d" d="m290.06,506.43l-7.21.12.28,17.13-11.63.19-.77-47.73,18.83-.3c11.7-.19,17.65,6.31,17.79,15.08.13,7.89-5.13,15.32-17.3,15.51Zm-1.03-9.23c4.62-.08,6.56-2.42,6.5-6.09-.06-3.67-2.07-5.95-6.69-5.88l-6.32.1.19,11.97,6.32-.1Z"/><path class="d" d="m321.33,472.62l7.5,38.03,14.94-2.95,1.74,8.81-26.35,5.2-9.23-46.83,11.41-2.25Z"/><path class="d" d="m338.07,469.68l10.69-4.58,11.24,26.26c2.22,5.19,6.07,7.09,11.13,4.92s6.47-6.32,4.25-11.51l-11.24-26.26,10.69-4.58,11.21,26.19c5.19,12.13-.74,21.77-10.87,26.1-10.19,4.36-20.7,1.76-25.89-10.37l-11.21-26.19Z"/><path class="d" d="m420.77,480.01c-8.25,6.11-17.73,6.79-23.76-.76l9.94-7.37c2.46,2.75,5.37,2.79,7.99.85,2.73-2.02,3.47-4.69,1.81-6.93-5.26-7.1-21.61,10.93-31.58-2.76-5.38-7.27-2.42-15.72,5.61-21.67,8.36-6.19,17.07-6.21,22.87.83l-10.11,7.49c-1.99-2.34-4.83-2.52-7.38-.71-2.28,1.61-3.12,4.01-1.34,6.41,4.94,6.67,21.67-10.39,31.19,2.46,4.78,6.45,3.72,15.53-5.24,22.17Z"/><path class="e" d="m52.35,275.46s-24.31,239.56,362.81-64.18l-42.59-48.65,193.46-30.24-24.46,181.35-32.13-30.9s-237.02,169.97-382.8,132.28c0,0-116.52-15.11-74.28-139.66"/></svg>